<svg xmlns="http://www.w3.org/2000/svg" version="1.1" xmlns:xlink="http://www.w3.org/1999/xlink" xmlns:svgjs="http://svgjs.dev/svgjs" viewBox="0 0 1422 800"><g><circle r="44.5" cx="0" cy="0" fill="hsl(208, 85%, 50%)"></circle><circle r="44.5" cx="0" cy="89" fill="hsl(213, 85%, 50%)"></circle><circle r="44.5" cx="0" cy="178" fill="hsl(218, 85%, 50%)"></circle><circle r="44.5" cx="0" cy="267" fill="hsl(223, 85%, 50%)"></circle><circle r="44.5" cx="0" cy="356" fill="hsl(228, 85%, 50%)"></circle><circle r="44.5" cx="0" cy="445" fill="hsl(232, 85%, 50%)"></circle><circle r="44.5" cx="0" cy="534" fill="hsl(235, 85%, 50%)"></circle><circle r="44.5" cx="0" cy="623" fill="hsl(237, 85%, 50%)"></circle><circle r="44.5" cx="0" cy="712" fill="hsl(239, 85%, 50%)"></circle><circle r="44.5" cx="0" cy="801" fill="hsl(240, 85%, 50%)"></circle><circle r="44.5" cx="0" cy="890" fill="hsl(241, 85%, 50%)"></circle><circle r="44.5" cx="89" cy="0" fill="hsl(208, 85%, 50%)"></circle><circle r="44.5" cx="89" cy="89" fill="hsl(213, 85%, 50%)"></circle><circle r="44.5" cx="89" cy="178" fill="hsl(218, 85%, 50%)"></circle><circle r="44.5" cx="89" cy="267" fill="hsl(223, 85%, 50%)"></circle><circle r="44.5" cx="89" cy="356" fill="hsl(228, 85%, 50%)"></circle><circle r="44.5" cx="89" cy="445" fill="hsl(232, 85%, 50%)"></circle><circle r="44.5" cx="89" cy="534" fill="hsl(235, 85%, 50%)"></circle><circle r="44.5" cx="89" cy="623" fill="hsl(237, 85%, 50%)"></circle><circle r="44.5" cx="89" cy="712" fill="hsl(239, 85%, 50%)"></circle><circle r="44.5" cx="89" cy="801" fill="hsl(240, 85%, 50%)"></circle><circle r="44.5" cx="89" cy="890" fill="hsl(240, 85%, 50%)"></circle><circle r="44.5" cx="178" cy="0" fill="hsl(208, 85%, 50%)"></circle><circle r="44.5" cx="178" cy="89" fill="hsl(213, 85%, 50%)"></circle><circle r="44.5" cx="178" cy="178" fill="hsl(218, 85%, 50%)"></circle><circle r="44.5" cx="178" cy="267" fill="hsl(223, 85%, 50%)"></circle><circle r="44.5" cx="178" cy="356" fill="hsl(227, 85%, 50%)"></circle><circle r="44.5" cx="178" cy="445" fill="hsl(231, 85%, 50%)"></circle><circle r="44.5" cx="178" cy="534" fill="hsl(234, 85%, 50%)"></circle><circle r="44.5" cx="178" cy="623" fill="hsl(237, 85%, 50%)"></circle><circle r="44.5" cx="178" cy="712" fill="hsl(238, 85%, 50%)"></circle><circle r="44.5" cx="178" cy="801" fill="hsl(239, 85%, 50%)"></circle><circle r="44.5" cx="178" cy="890" fill="hsl(240, 85%, 50%)"></circle><circle r="44.5" cx="267" cy="0" fill="hsl(208, 85%, 50%)"></circle><circle r="44.5" cx="267" cy="89" fill="hsl(213, 85%, 50%)"></circle><circle r="44.5" cx="267" cy="178" fill="hsl(218, 85%, 50%)"></circle><circle r="44.5" cx="267" cy="267" fill="hsl(223, 85%, 50%)"></circle><circle r="44.5" cx="267" cy="356" fill="hsl(227, 85%, 50%)"></circle><circle r="44.5" cx="267" cy="445" fill="hsl(231, 85%, 50%)"></circle><circle r="44.5" cx="267" cy="534" fill="hsl(234, 85%, 50%)"></circle><circle r="44.5" cx="267" cy="623" fill="hsl(236, 85%, 50%)"></circle><circle r="44.5" cx="267" cy="712" fill="hsl(238, 85%, 50%)"></circle><circle r="44.5" cx="267" cy="801" fill="hsl(239, 85%, 50%)"></circle><circle r="44.5" cx="267" cy="890" fill="hsl(239, 85%, 50%)"></circle><circle r="44.5" cx="356" cy="0" fill="hsl(208, 85%, 50%)"></circle><circle r="44.5" cx="356" cy="89" fill="hsl(213, 85%, 50%)"></circle><circle r="44.5" cx="356" cy="178" fill="hsl(217, 85%, 50%)"></circle><circle r="44.5" cx="356" cy="267" fill="hsl(222, 85%, 50%)"></circle><circle r="44.5" cx="356" cy="356" fill="hsl(226, 85%, 50%)"></circle><circle r="44.5" cx="356" cy="445" fill="hsl(230, 85%, 50%)"></circle><circle r="44.5" cx="356" cy="534" fill="hsl(233, 85%, 50%)"></circle><circle r="44.5" cx="356" cy="623" fill="hsl(235, 85%, 50%)"></circle><circle r="44.5" cx="356" cy="712" fill="hsl(237, 85%, 50%)"></circle><circle r="44.5" cx="356" cy="801" fill="hsl(238, 85%, 50%)"></circle><circle r="44.5" cx="356" cy="890" fill="hsl(239, 85%, 50%)"></circle><circle r="44.5" cx="445" cy="0" fill="hsl(207, 85%, 50%)"></circle><circle r="44.5" cx="445" cy="89" fill="hsl(212, 85%, 50%)"></circle><circle r="44.5" cx="445" cy="178" fill="hsl(217, 85%, 50%)"></circle><circle r="44.5" cx="445" cy="267" fill="hsl(221, 85%, 50%)"></circle><circle r="44.5" cx="445" cy="356" fill="hsl(225, 85%, 50%)"></circle><circle r="44.5" cx="445" cy="445" fill="hsl(229, 85%, 50%)"></circle><circle r="44.5" cx="445" cy="534" fill="hsl(232, 85%, 50%)"></circle><circle r="44.5" cx="445" cy="623" fill="hsl(234, 85%, 50%)"></circle><circle r="44.5" cx="445" cy="712" fill="hsl(236, 85%, 50%)"></circle><circle r="44.5" cx="445" cy="801" fill="hsl(238, 85%, 50%)"></circle><circle r="44.5" cx="445" cy="890" fill="hsl(239, 85%, 50%)"></circle><circle r="44.5" cx="534" cy="0" fill="hsl(207, 85%, 50%)"></circle><circle r="44.5" cx="534" cy="89" fill="hsl(212, 85%, 50%)"></circle><circle r="44.5" cx="534" cy="178" fill="hsl(216, 85%, 50%)"></circle><circle r="44.5" cx="534" cy="267" fill="hsl(221, 85%, 50%)"></circle><circle r="44.5" cx="534" cy="356" fill="hsl(224, 85%, 50%)"></circle><circle r="44.5" cx="534" cy="445" fill="hsl(228, 85%, 50%)"></circle><circle r="44.5" cx="534" cy="534" fill="hsl(231, 85%, 50%)"></circle><circle r="44.5" cx="534" cy="623" fill="hsl(234, 85%, 50%)"></circle><circle r="44.5" cx="534" cy="712" fill="hsl(236, 85%, 50%)"></circle><circle r="44.5" cx="534" cy="801" fill="hsl(237, 85%, 50%)"></circle><circle r="44.5" cx="534" cy="890" fill="hsl(239, 85%, 50%)"></circle><circle r="44.5" cx="623" cy="0" fill="hsl(207, 85%, 50%)"></circle><circle r="44.5" cx="623" cy="89" fill="hsl(212, 85%, 50%)"></circle><circle r="44.5" cx="623" cy="178" fill="hsl(216, 85%, 50%)"></circle><circle r="44.5" cx="623" cy="267" fill="hsl(220, 85%, 50%)"></circle><circle r="44.5" cx="623" cy="356" fill="hsl(224, 85%, 50%)"></circle><circle r="44.5" cx="623" cy="445" fill="hsl(227, 85%, 50%)"></circle><circle r="44.5" cx="623" cy="534" fill="hsl(230, 85%, 50%)"></circle><circle r="44.5" cx="623" cy="623" fill="hsl(233, 85%, 50%)"></circle><circle r="44.5" cx="623" cy="712" fill="hsl(235, 85%, 50%)"></circle><circle r="44.5" cx="623" cy="801" fill="hsl(237, 85%, 50%)"></circle><circle r="44.5" cx="623" cy="890" fill="hsl(239, 85%, 50%)"></circle><circle r="44.5" cx="712" cy="0" fill="hsl(207, 85%, 50%)"></circle><circle r="44.5" cx="712" cy="89" fill="hsl(211, 85%, 50%)"></circle><circle r="44.5" cx="712" cy="178" fill="hsl(215, 85%, 50%)"></circle><circle r="44.5" cx="712" cy="267" fill="hsl(219, 85%, 50%)"></circle><circle r="44.5" cx="712" cy="356" fill="hsl(223, 85%, 50%)"></circle><circle r="44.5" cx="712" cy="445" fill="hsl(226, 85%, 50%)"></circle><circle r="44.5" cx="712" cy="534" fill="hsl(229, 85%, 50%)"></circle><circle r="44.5" cx="712" cy="623" fill="hsl(232, 85%, 50%)"></circle><circle r="44.5" cx="712" cy="712" fill="hsl(235, 85%, 50%)"></circle><circle r="44.5" cx="712" cy="801" fill="hsl(237, 85%, 50%)"></circle><circle r="44.5" cx="712" cy="890" fill="hsl(239, 85%, 50%)"></circle><circle r="44.5" cx="801" cy="0" fill="hsl(207, 85%, 50%)"></circle><circle r="44.5" cx="801" cy="89" fill="hsl(211, 85%, 50%)"></circle><circle r="44.5" cx="801" cy="178" fill="hsl(215, 85%, 50%)"></circle><circle r="44.5" cx="801" cy="267" fill="hsl(218, 85%, 50%)"></circle><circle r="44.5" cx="801" cy="356" fill="hsl(222, 85%, 50%)"></circle><circle r="44.5" cx="801" cy="445" fill="hsl(225, 85%, 50%)"></circle><circle r="44.5" cx="801" cy="534" fill="hsl(229, 85%, 50%)"></circle><circle r="44.5" cx="801" cy="623" fill="hsl(232, 85%, 50%)"></circle><circle r="44.5" cx="801" cy="712" fill="hsl(235, 85%, 50%)"></circle><circle r="44.5" cx="801" cy="801" fill="hsl(237, 85%, 50%)"></circle><circle r="44.5" cx="801" cy="890" fill="hsl(240, 85%, 50%)"></circle><circle r="44.5" cx="890" cy="0" fill="hsl(207, 85%, 50%)"></circle><circle r="44.5" cx="890" cy="89" fill="hsl(210, 85%, 50%)"></circle><circle r="44.5" cx="890" cy="178" fill="hsl(214, 85%, 50%)"></circle><circle r="44.5" cx="890" cy="267" fill="hsl(217, 85%, 50%)"></circle><circle r="44.5" cx="890" cy="356" fill="hsl(221, 85%, 50%)"></circle><circle r="44.5" cx="890" cy="445" fill="hsl(225, 85%, 50%)"></circle><circle r="44.5" cx="890" cy="534" fill="hsl(228, 85%, 50%)"></circle><circle r="44.5" cx="890" cy="623" fill="hsl(232, 85%, 50%)"></circle><circle r="44.5" cx="890" cy="712" fill="hsl(235, 85%, 50%)"></circle><circle r="44.5" cx="890" cy="801" fill="hsl(238, 85%, 50%)"></circle><circle r="44.5" cx="890" cy="890" fill="hsl(240, 85%, 50%)"></circle><circle r="44.5" cx="979" cy="0" fill="hsl(207, 85%, 50%)"></circle><circle r="44.5" cx="979" cy="89" fill="hsl(210, 85%, 50%)"></circle><circle r="44.5" cx="979" cy="178" fill="hsl(213, 85%, 50%)"></circle><circle r="44.5" cx="979" cy="267" fill="hsl(217, 85%, 50%)"></circle><circle r="44.5" cx="979" cy="356" fill="hsl(220, 85%, 50%)"></circle><circle r="44.5" cx="979" cy="445" fill="hsl(224, 85%, 50%)"></circle><circle r="44.5" cx="979" cy="534" fill="hsl(228, 85%, 50%)"></circle><circle r="44.5" cx="979" cy="623" fill="hsl(231, 85%, 50%)"></circle><circle r="44.5" cx="979" cy="712" fill="hsl(235, 85%, 50%)"></circle><circle r="44.5" cx="979" cy="801" fill="hsl(238, 85%, 50%)"></circle><circle r="44.5" cx="979" cy="890" fill="hsl(241, 85%, 50%)"></circle><circle r="44.5" cx="1068" cy="0" fill="hsl(206, 85%, 50%)"></circle><circle r="44.5" cx="1068" cy="89" fill="hsl(209, 85%, 50%)"></circle><circle r="44.5" cx="1068" cy="178" fill="hsl(212, 85%, 50%)"></circle><circle r="44.5" cx="1068" cy="267" fill="hsl(216, 85%, 50%)"></circle><circle r="44.5" cx="1068" cy="356" fill="hsl(219, 85%, 50%)"></circle><circle r="44.5" cx="1068" cy="445" fill="hsl(223, 85%, 50%)"></circle><circle r="44.5" cx="1068" cy="534" fill="hsl(227, 85%, 50%)"></circle><circle r="44.5" cx="1068" cy="623" fill="hsl(231, 85%, 50%)"></circle><circle r="44.5" cx="1068" cy="712" fill="hsl(235, 85%, 50%)"></circle><circle r="44.5" cx="1068" cy="801" fill="hsl(239, 85%, 50%)"></circle><circle r="44.5" cx="1068" cy="890" fill="hsl(242, 85%, 50%)"></circle><circle r="44.5" cx="1157" cy="0" fill="hsl(205, 85%, 50%)"></circle><circle r="44.5" cx="1157" cy="89" fill="hsl(208, 85%, 50%)"></circle><circle r="44.5" cx="1157" cy="178" fill="hsl(211, 85%, 50%)"></circle><circle r="44.5" cx="1157" cy="267" fill="hsl(215, 85%, 50%)"></circle><circle r="44.5" cx="1157" cy="356" fill="hsl(219, 85%, 50%)"></circle><circle r="44.5" cx="1157" cy="445" fill="hsl(223, 85%, 50%)"></circle><circle r="44.5" cx="1157" cy="534" fill="hsl(227, 85%, 50%)"></circle><circle r="44.5" cx="1157" cy="623" fill="hsl(231, 85%, 50%)"></circle><circle r="44.5" cx="1157" cy="712" fill="hsl(235, 85%, 50%)"></circle><circle r="44.5" cx="1157" cy="801" fill="hsl(239, 85%, 50%)"></circle><circle r="44.5" cx="1157" cy="890" fill="hsl(242, 85%, 50%)"></circle><circle r="44.5" cx="1246" cy="0" fill="hsl(204, 85%, 50%)"></circle><circle r="44.5" cx="1246" cy="89" fill="hsl(207, 85%, 50%)"></circle><circle r="44.5" cx="1246" cy="178" fill="hsl(210, 85%, 50%)"></circle><circle r="44.5" cx="1246" cy="267" fill="hsl(214, 85%, 50%)"></circle><circle r="44.5" cx="1246" cy="356" fill="hsl(217, 85%, 50%)"></circle><circle r="44.5" cx="1246" cy="445" fill="hsl(222, 85%, 50%)"></circle><circle r="44.5" cx="1246" cy="534" fill="hsl(226, 85%, 50%)"></circle><circle r="44.5" cx="1246" cy="623" fill="hsl(231, 85%, 50%)"></circle><circle r="44.5" cx="1246" cy="712" fill="hsl(235, 85%, 50%)"></circle><circle r="44.5" cx="1246" cy="801" fill="hsl(239, 85%, 50%)"></circle><circle r="44.5" cx="1246" cy="890" fill="hsl(243, 85%, 50%)"></circle><circle r="44.5" cx="1335" cy="0" fill="hsl(203, 85%, 50%)"></circle><circle r="44.5" cx="1335" cy="89" fill="hsl(205, 85%, 50%)"></circle><circle r="44.5" cx="1335" cy="178" fill="hsl(209, 85%, 50%)"></circle><circle r="44.5" cx="1335" cy="267" fill="hsl(212, 85%, 50%)"></circle><circle r="44.5" cx="1335" cy="356" fill="hsl(216, 85%, 50%)"></circle><circle r="44.5" cx="1335" cy="445" fill="hsl(221, 85%, 50%)"></circle><circle r="44.5" cx="1335" cy="534" fill="hsl(225, 85%, 50%)"></circle><circle r="44.5" cx="1335" cy="623" fill="hsl(230, 85%, 50%)"></circle><circle r="44.5" cx="1335" cy="712" fill="hsl(235, 85%, 50%)"></circle><circle r="44.5" cx="1335" cy="801" fill="hsl(239, 85%, 50%)"></circle><circle r="44.5" cx="1335" cy="890" fill="hsl(243, 85%, 50%)"></circle><circle r="44.5" cx="1424" cy="0" fill="hsl(203, 85%, 50%)"></circle><circle r="44.5" cx="1424" cy="89" fill="hsl(205, 85%, 50%)"></circle><circle r="44.5" cx="1424" cy="178" fill="hsl(209, 85%, 50%)"></circle><circle r="44.5" cx="1424" cy="267" fill="hsl(212, 85%, 50%)"></circle><circle r="44.5" cx="1424" cy="356" fill="hsl(216, 85%, 50%)"></circle><circle r="44.5" cx="1424" cy="445" fill="hsl(221, 85%, 50%)"></circle><circle r="44.5" cx="1424" cy="534" fill="hsl(225, 85%, 50%)"></circle><circle r="44.5" cx="1424" cy="623" fill="hsl(230, 85%, 50%)"></circle><circle r="44.5" cx="1424" cy="712" fill="hsl(235, 85%, 50%)"></circle><circle r="44.5" cx="1424" cy="801" fill="hsl(239, 85%, 50%)"></circle><circle r="44.5" cx="1424" cy="890" fill="hsl(243, 85%, 50%)"></circle><circle r="44.5" cx="1513" cy="0" fill="hsl(203, 85%, 50%)"></circle><circle r="44.5" cx="1513" cy="89" fill="hsl(205, 85%, 50%)"></circle><circle r="44.5" cx="1513" cy="178" fill="hsl(209, 85%, 50%)"></circle><circle r="44.5" cx="1513" cy="267" fill="hsl(212, 85%, 50%)"></circle><circle r="44.5" cx="1513" cy="356" fill="hsl(216, 85%, 50%)"></circle><circle r="44.5" cx="1513" cy="445" fill="hsl(221, 85%, 50%)"></circle><circle r="44.5" cx="1513" cy="534" fill="hsl(225, 85%, 50%)"></circle><circle r="44.5" cx="1513" cy="623" fill="hsl(230, 85%, 50%)"></circle><circle r="44.5" cx="1513" cy="712" fill="hsl(235, 85%, 50%)"></circle><circle r="44.5" cx="1513" cy="801" fill="hsl(239, 85%, 50%)"></circle><circle r="44.5" cx="1513" cy="890" fill="hsl(243, 85%, 50%)"></circle><circle r="44.5" cx="1602" cy="0" fill="hsl(203, 85%, 50%)"></circle><circle r="44.5" cx="1602" cy="89" fill="hsl(205, 85%, 50%)"></circle><circle r="44.5" cx="1602" cy="178" fill="hsl(209, 85%, 50%)"></circle><circle r="44.5" cx="1602" cy="267" fill="hsl(212, 85%, 50%)"></circle><circle r="44.5" cx="1602" cy="356" fill="hsl(216, 85%, 50%)"></circle><circle r="44.5" cx="1602" cy="445" fill="hsl(221, 85%, 50%)"></circle><circle r="44.5" cx="1602" cy="534" fill="hsl(225, 85%, 50%)"></circle><circle r="44.5" cx="1602" cy="623" fill="hsl(230, 85%, 50%)"></circle><circle r="44.5" cx="1602" cy="712" fill="hsl(235, 85%, 50%)"></circle><circle r="44.5" cx="1602" cy="801" fill="hsl(239, 85%, 50%)"></circle><circle r="44.5" cx="1602" cy="890" fill="hsl(243, 85%, 50%)"></circle><circle r="44.5" cx="1691" cy="0" fill="hsl(203, 85%, 50%)"></circle><circle r="44.5" cx="1691" cy="89" fill="hsl(205, 85%, 50%)"></circle><circle r="44.5" cx="1691" cy="178" fill="hsl(209, 85%, 50%)"></circle><circle r="44.5" cx="1691" cy="267" fill="hsl(212, 85%, 50%)"></circle><circle r="44.5" cx="1691" cy="356" fill="hsl(216, 85%, 50%)"></circle><circle r="44.5" cx="1691" cy="445" fill="hsl(221, 85%, 50%)"></circle><circle r="44.5" cx="1691" cy="534" fill="hsl(225, 85%, 50%)"></circle><circle r="44.5" cx="1691" cy="623" fill="hsl(230, 85%, 50%)"></circle><circle r="44.5" cx="1691" cy="712" fill="hsl(235, 85%, 50%)"></circle><circle r="44.5" cx="1691" cy="801" fill="hsl(239, 85%, 50%)"></circle><circle r="44.5" cx="1691" cy="890" fill="hsl(243, 85%, 50%)"></circle><circle r="44.5" cx="1780" cy="0" fill="hsl(203, 85%, 50%)"></circle><circle r="44.5" cx="1780" cy="89" fill="hsl(205, 85%, 50%)"></circle><circle r="44.5" cx="1780" cy="178" fill="hsl(209, 85%, 50%)"></circle><circle r="44.5" cx="1780" cy="267" fill="hsl(212, 85%, 50%)"></circle><circle r="44.5" cx="1780" cy="356" fill="hsl(216, 85%, 50%)"></circle><circle r="44.5" cx="1780" cy="445" fill="hsl(221, 85%, 50%)"></circle><circle r="44.5" cx="1780" cy="534" fill="hsl(225, 85%, 50%)"></circle><circle r="44.5" cx="1780" cy="623" fill="hsl(230, 85%, 50%)"></circle><circle r="44.5" cx="1780" cy="712" fill="hsl(235, 85%, 50%)"></circle><circle r="44.5" cx="1780" cy="801" fill="hsl(239, 85%, 50%)"></circle><circle r="44.5" cx="1780" cy="890" fill="hsl(243, 85%, 50%)"></circle></g><g transform="matrix(1,0,0,1,-44.5,0)"><circle r="44.5" cx="0" cy="44.5" fill="hsl(208, 85%, 50%)"></circle><circle r="44.5" cx="0" cy="133.5" fill="hsl(213, 85%, 50%)"></circle><circle r="44.5" cx="0" cy="222.5" fill="hsl(218, 85%, 50%)"></circle><circle r="44.5" cx="0" cy="311.5" fill="hsl(223, 85%, 50%)"></circle><circle r="44.5" cx="0" cy="400.5" fill="hsl(228, 85%, 50%)"></circle><circle r="44.5" cx="0" cy="489.5" fill="hsl(232, 85%, 50%)"></circle><circle r="44.5" cx="0" cy="578.5" fill="hsl(235, 85%, 50%)"></circle><circle r="44.5" cx="0" cy="667.5" fill="hsl(237, 85%, 50%)"></circle><circle r="44.5" cx="0" cy="756.5" fill="hsl(239, 85%, 50%)"></circle><circle r="44.5" cx="0" cy="845.5" fill="hsl(240, 85%, 50%)"></circle><circle r="44.5" cx="89" cy="44.5" fill="hsl(208, 85%, 50%)"></circle><circle r="44.5" cx="89" cy="133.5" fill="hsl(213, 85%, 50%)"></circle><circle r="44.5" cx="89" cy="222.5" fill="hsl(218, 85%, 50%)"></circle><circle r="44.5" cx="89" cy="311.5" fill="hsl(223, 85%, 50%)"></circle><circle r="44.5" cx="89" cy="400.5" fill="hsl(228, 85%, 50%)"></circle><circle r="44.5" cx="89" cy="489.5" fill="hsl(232, 85%, 50%)"></circle><circle r="44.5" cx="89" cy="578.5" fill="hsl(235, 85%, 50%)"></circle><circle r="44.5" cx="89" cy="667.5" fill="hsl(237, 85%, 50%)"></circle><circle r="44.5" cx="89" cy="756.5" fill="hsl(239, 85%, 50%)"></circle><circle r="44.5" cx="89" cy="845.5" fill="hsl(240, 85%, 50%)"></circle><circle r="44.5" cx="178" cy="44.5" fill="hsl(208, 85%, 50%)"></circle><circle r="44.5" cx="178" cy="133.5" fill="hsl(213, 85%, 50%)"></circle><circle r="44.5" cx="178" cy="222.5" fill="hsl(218, 85%, 50%)"></circle><circle r="44.5" cx="178" cy="311.5" fill="hsl(223, 85%, 50%)"></circle><circle r="44.5" cx="178" cy="400.5" fill="hsl(227, 85%, 50%)"></circle><circle r="44.5" cx="178" cy="489.5" fill="hsl(231, 85%, 50%)"></circle><circle r="44.5" cx="178" cy="578.5" fill="hsl(234, 85%, 50%)"></circle><circle r="44.5" cx="178" cy="667.5" fill="hsl(237, 85%, 50%)"></circle><circle r="44.5" cx="178" cy="756.5" fill="hsl(238, 85%, 50%)"></circle><circle r="44.5" cx="178" cy="845.5" fill="hsl(239, 85%, 50%)"></circle><circle r="44.5" cx="267" cy="44.5" fill="hsl(208, 85%, 50%)"></circle><circle r="44.5" cx="267" cy="133.5" fill="hsl(213, 85%, 50%)"></circle><circle r="44.5" cx="267" cy="222.5" fill="hsl(218, 85%, 50%)"></circle><circle r="44.5" cx="267" cy="311.5" fill="hsl(223, 85%, 50%)"></circle><circle r="44.5" cx="267" cy="400.5" fill="hsl(227, 85%, 50%)"></circle><circle r="44.5" cx="267" cy="489.5" fill="hsl(231, 85%, 50%)"></circle><circle r="44.5" cx="267" cy="578.5" fill="hsl(234, 85%, 50%)"></circle><circle r="44.5" cx="267" cy="667.5" fill="hsl(236, 85%, 50%)"></circle><circle r="44.5" cx="267" cy="756.5" fill="hsl(238, 85%, 50%)"></circle><circle r="44.5" cx="267" cy="845.5" fill="hsl(239, 85%, 50%)"></circle><circle r="44.5" cx="356" cy="44.5" fill="hsl(208, 85%, 50%)"></circle><circle r="44.5" cx="356" cy="133.5" fill="hsl(213, 85%, 50%)"></circle><circle r="44.5" cx="356" cy="222.5" fill="hsl(217, 85%, 50%)"></circle><circle r="44.5" cx="356" cy="311.5" fill="hsl(222, 85%, 50%)"></circle><circle r="44.5" cx="356" cy="400.5" fill="hsl(226, 85%, 50%)"></circle><circle r="44.5" cx="356" cy="489.5" fill="hsl(230, 85%, 50%)"></circle><circle r="44.5" cx="356" cy="578.5" fill="hsl(233, 85%, 50%)"></circle><circle r="44.5" cx="356" cy="667.5" fill="hsl(235, 85%, 50%)"></circle><circle r="44.5" cx="356" cy="756.5" fill="hsl(237, 85%, 50%)"></circle><circle r="44.5" cx="356" cy="845.5" fill="hsl(238, 85%, 50%)"></circle><circle r="44.5" cx="445" cy="44.5" fill="hsl(207, 85%, 50%)"></circle><circle r="44.5" cx="445" cy="133.5" fill="hsl(212, 85%, 50%)"></circle><circle r="44.5" cx="445" cy="222.5" fill="hsl(217, 85%, 50%)"></circle><circle r="44.5" cx="445" cy="311.5" fill="hsl(221, 85%, 50%)"></circle><circle r="44.5" cx="445" cy="400.5" fill="hsl(225, 85%, 50%)"></circle><circle r="44.5" cx="445" cy="489.5" fill="hsl(229, 85%, 50%)"></circle><circle r="44.5" cx="445" cy="578.5" fill="hsl(232, 85%, 50%)"></circle><circle r="44.5" cx="445" cy="667.5" fill="hsl(234, 85%, 50%)"></circle><circle r="44.5" cx="445" cy="756.5" fill="hsl(236, 85%, 50%)"></circle><circle r="44.5" cx="445" cy="845.5" fill="hsl(238, 85%, 50%)"></circle><circle r="44.5" cx="534" cy="44.5" fill="hsl(207, 85%, 50%)"></circle><circle r="44.5" cx="534" cy="133.5" fill="hsl(212, 85%, 50%)"></circle><circle r="44.5" cx="534" cy="222.5" fill="hsl(216, 85%, 50%)"></circle><circle r="44.5" cx="534" cy="311.5" fill="hsl(221, 85%, 50%)"></circle><circle r="44.5" cx="534" cy="400.5" fill="hsl(224, 85%, 50%)"></circle><circle r="44.5" cx="534" cy="489.5" fill="hsl(228, 85%, 50%)"></circle><circle r="44.5" cx="534" cy="578.5" fill="hsl(231, 85%, 50%)"></circle><circle r="44.5" cx="534" cy="667.5" fill="hsl(234, 85%, 50%)"></circle><circle r="44.5" cx="534" cy="756.5" fill="hsl(236, 85%, 50%)"></circle><circle r="44.5" cx="534" cy="845.5" fill="hsl(237, 85%, 50%)"></circle><circle r="44.5" cx="623" cy="44.5" fill="hsl(207, 85%, 50%)"></circle><circle r="44.5" cx="623" cy="133.5" fill="hsl(212, 85%, 50%)"></circle><circle r="44.5" cx="623" cy="222.5" fill="hsl(216, 85%, 50%)"></circle><circle r="44.5" cx="623" cy="311.5" fill="hsl(220, 85%, 50%)"></circle><circle r="44.5" cx="623" cy="400.5" fill="hsl(224, 85%, 50%)"></circle><circle r="44.5" cx="623" cy="489.5" fill="hsl(227, 85%, 50%)"></circle><circle r="44.5" cx="623" cy="578.5" fill="hsl(230, 85%, 50%)"></circle><circle r="44.5" cx="623" cy="667.5" fill="hsl(233, 85%, 50%)"></circle><circle r="44.5" cx="623" cy="756.5" fill="hsl(235, 85%, 50%)"></circle><circle r="44.5" cx="623" cy="845.5" fill="hsl(237, 85%, 50%)"></circle><circle r="44.5" cx="712" cy="44.5" fill="hsl(207, 85%, 50%)"></circle><circle r="44.5" cx="712" cy="133.5" fill="hsl(211, 85%, 50%)"></circle><circle r="44.5" cx="712" cy="222.5" fill="hsl(215, 85%, 50%)"></circle><circle r="44.5" cx="712" cy="311.5" fill="hsl(219, 85%, 50%)"></circle><circle r="44.5" cx="712" cy="400.5" fill="hsl(223, 85%, 50%)"></circle><circle r="44.5" cx="712" cy="489.5" fill="hsl(226, 85%, 50%)"></circle><circle r="44.5" cx="712" cy="578.5" fill="hsl(229, 85%, 50%)"></circle><circle r="44.5" cx="712" cy="667.5" fill="hsl(232, 85%, 50%)"></circle><circle r="44.5" cx="712" cy="756.5" fill="hsl(235, 85%, 50%)"></circle><circle r="44.5" cx="712" cy="845.5" fill="hsl(237, 85%, 50%)"></circle><circle r="44.5" cx="801" cy="44.5" fill="hsl(207, 85%, 50%)"></circle><circle r="44.5" cx="801" cy="133.5" fill="hsl(211, 85%, 50%)"></circle><circle r="44.5" cx="801" cy="222.5" fill="hsl(215, 85%, 50%)"></circle><circle r="44.5" cx="801" cy="311.5" fill="hsl(218, 85%, 50%)"></circle><circle r="44.5" cx="801" cy="400.5" fill="hsl(222, 85%, 50%)"></circle><circle r="44.5" cx="801" cy="489.5" fill="hsl(225, 85%, 50%)"></circle><circle r="44.5" cx="801" cy="578.5" fill="hsl(229, 85%, 50%)"></circle><circle r="44.5" cx="801" cy="667.5" fill="hsl(232, 85%, 50%)"></circle><circle r="44.5" cx="801" cy="756.5" fill="hsl(235, 85%, 50%)"></circle><circle r="44.5" cx="801" cy="845.5" fill="hsl(237, 85%, 50%)"></circle><circle r="44.5" cx="890" cy="44.5" fill="hsl(207, 85%, 50%)"></circle><circle r="44.5" cx="890" cy="133.5" fill="hsl(210, 85%, 50%)"></circle><circle r="44.5" cx="890" cy="222.5" fill="hsl(214, 85%, 50%)"></circle><circle r="44.5" cx="890" cy="311.5" fill="hsl(217, 85%, 50%)"></circle><circle r="44.5" cx="890" cy="400.5" fill="hsl(221, 85%, 50%)"></circle><circle r="44.5" cx="890" cy="489.5" fill="hsl(225, 85%, 50%)"></circle><circle r="44.5" cx="890" cy="578.5" fill="hsl(228, 85%, 50%)"></circle><circle r="44.5" cx="890" cy="667.5" fill="hsl(232, 85%, 50%)"></circle><circle r="44.5" cx="890" cy="756.5" fill="hsl(235, 85%, 50%)"></circle><circle r="44.5" cx="890" cy="845.5" fill="hsl(238, 85%, 50%)"></circle><circle r="44.5" cx="979" cy="44.5" fill="hsl(207, 85%, 50%)"></circle><circle r="44.5" cx="979" cy="133.5" fill="hsl(210, 85%, 50%)"></circle><circle r="44.5" cx="979" cy="222.5" fill="hsl(213, 85%, 50%)"></circle><circle r="44.5" cx="979" cy="311.5" fill="hsl(217, 85%, 50%)"></circle><circle r="44.5" cx="979" cy="400.5" fill="hsl(220, 85%, 50%)"></circle><circle r="44.5" cx="979" cy="489.5" fill="hsl(224, 85%, 50%)"></circle><circle r="44.5" cx="979" cy="578.5" fill="hsl(228, 85%, 50%)"></circle><circle r="44.5" cx="979" cy="667.5" fill="hsl(231, 85%, 50%)"></circle><circle r="44.5" cx="979" cy="756.5" fill="hsl(235, 85%, 50%)"></circle><circle r="44.5" cx="979" cy="845.5" fill="hsl(238, 85%, 50%)"></circle><circle r="44.5" cx="1068" cy="44.5" fill="hsl(206, 85%, 50%)"></circle><circle r="44.5" cx="1068" cy="133.5" fill="hsl(209, 85%, 50%)"></circle><circle r="44.5" cx="1068" cy="222.5" fill="hsl(212, 85%, 50%)"></circle><circle r="44.5" cx="1068" cy="311.5" fill="hsl(216, 85%, 50%)"></circle><circle r="44.5" cx="1068" cy="400.5" fill="hsl(219, 85%, 50%)"></circle><circle r="44.5" cx="1068" cy="489.5" fill="hsl(223, 85%, 50%)"></circle><circle r="44.5" cx="1068" cy="578.5" fill="hsl(227, 85%, 50%)"></circle><circle r="44.5" cx="1068" cy="667.5" fill="hsl(231, 85%, 50%)"></circle><circle r="44.5" cx="1068" cy="756.5" fill="hsl(235, 85%, 50%)"></circle><circle r="44.5" cx="1068" cy="845.5" fill="hsl(239, 85%, 50%)"></circle><circle r="44.5" cx="1157" cy="44.5" fill="hsl(205, 85%, 50%)"></circle><circle r="44.5" cx="1157" cy="133.5" fill="hsl(208, 85%, 50%)"></circle><circle r="44.5" cx="1157" cy="222.5" fill="hsl(211, 85%, 50%)"></circle><circle r="44.5" cx="1157" cy="311.5" fill="hsl(215, 85%, 50%)"></circle><circle r="44.5" cx="1157" cy="400.5" fill="hsl(219, 85%, 50%)"></circle><circle r="44.5" cx="1157" cy="489.5" fill="hsl(223, 85%, 50%)"></circle><circle r="44.5" cx="1157" cy="578.5" fill="hsl(227, 85%, 50%)"></circle><circle r="44.5" cx="1157" cy="667.5" fill="hsl(231, 85%, 50%)"></circle><circle r="44.5" cx="1157" cy="756.5" fill="hsl(235, 85%, 50%)"></circle><circle r="44.5" cx="1157" cy="845.5" fill="hsl(239, 85%, 50%)"></circle><circle r="44.5" cx="1246" cy="44.5" fill="hsl(204, 85%, 50%)"></circle><circle r="44.5" cx="1246" cy="133.5" fill="hsl(207, 85%, 50%)"></circle><circle r="44.5" cx="1246" cy="222.5" fill="hsl(210, 85%, 50%)"></circle><circle r="44.5" cx="1246" cy="311.5" fill="hsl(214, 85%, 50%)"></circle><circle r="44.5" cx="1246" cy="400.5" fill="hsl(217, 85%, 50%)"></circle><circle r="44.5" cx="1246" cy="489.5" fill="hsl(222, 85%, 50%)"></circle><circle r="44.5" cx="1246" cy="578.5" fill="hsl(226, 85%, 50%)"></circle><circle r="44.5" cx="1246" cy="667.5" fill="hsl(231, 85%, 50%)"></circle><circle r="44.5" cx="1246" cy="756.5" fill="hsl(235, 85%, 50%)"></circle><circle r="44.5" cx="1246" cy="845.5" fill="hsl(239, 85%, 50%)"></circle><circle r="44.5" cx="1335" cy="44.5" fill="hsl(203, 85%, 50%)"></circle><circle r="44.5" cx="1335" cy="133.5" fill="hsl(205, 85%, 50%)"></circle><circle r="44.5" cx="1335" cy="222.5" fill="hsl(209, 85%, 50%)"></circle><circle r="44.5" cx="1335" cy="311.5" fill="hsl(212, 85%, 50%)"></circle><circle r="44.5" cx="1335" cy="400.5" fill="hsl(216, 85%, 50%)"></circle><circle r="44.5" cx="1335" cy="489.5" fill="hsl(221, 85%, 50%)"></circle><circle r="44.5" cx="1335" cy="578.5" fill="hsl(225, 85%, 50%)"></circle><circle r="44.5" cx="1335" cy="667.5" fill="hsl(230, 85%, 50%)"></circle><circle r="44.5" cx="1335" cy="756.5" fill="hsl(235, 85%, 50%)"></circle><circle r="44.5" cx="1335" cy="845.5" fill="hsl(239, 85%, 50%)"></circle><circle r="44.5" cx="1424" cy="44.5" fill="hsl(203, 85%, 50%)"></circle><circle r="44.5" cx="1424" cy="133.5" fill="hsl(205, 85%, 50%)"></circle><circle r="44.5" cx="1424" cy="222.5" fill="hsl(209, 85%, 50%)"></circle><circle r="44.5" cx="1424" cy="311.5" fill="hsl(212, 85%, 50%)"></circle><circle r="44.5" cx="1424" cy="400.5" fill="hsl(216, 85%, 50%)"></circle><circle r="44.5" cx="1424" cy="489.5" fill="hsl(221, 85%, 50%)"></circle><circle r="44.5" cx="1424" cy="578.5" fill="hsl(225, 85%, 50%)"></circle><circle r="44.5" cx="1424" cy="667.5" fill="hsl(230, 85%, 50%)"></circle><circle r="44.5" cx="1424" cy="756.5" fill="hsl(235, 85%, 50%)"></circle><circle r="44.5" cx="1424" cy="845.5" fill="hsl(239, 85%, 50%)"></circle><circle r="44.5" cx="1513" cy="44.5" fill="hsl(203, 85%, 50%)"></circle><circle r="44.5" cx="1513" cy="133.5" fill="hsl(205, 85%, 50%)"></circle><circle r="44.5" cx="1513" cy="222.5" fill="hsl(209, 85%, 50%)"></circle><circle r="44.5" cx="1513" cy="311.5" fill="hsl(212, 85%, 50%)"></circle><circle r="44.5" cx="1513" cy="400.5" fill="hsl(216, 85%, 50%)"></circle><circle r="44.5" cx="1513" cy="489.5" fill="hsl(221, 85%, 50%)"></circle><circle r="44.5" cx="1513" cy="578.5" fill="hsl(225, 85%, 50%)"></circle><circle r="44.5" cx="1513" cy="667.5" fill="hsl(230, 85%, 50%)"></circle><circle r="44.5" cx="1513" cy="756.5" fill="hsl(235, 85%, 50%)"></circle><circle r="44.5" cx="1513" cy="845.5" fill="hsl(239, 85%, 50%)"></circle><circle r="44.5" cx="1602" cy="44.5" fill="hsl(203, 85%, 50%)"></circle><circle r="44.5" cx="1602" cy="133.5" fill="hsl(205, 85%, 50%)"></circle><circle r="44.5" cx="1602" cy="222.5" fill="hsl(209, 85%, 50%)"></circle><circle r="44.5" cx="1602" cy="311.5" fill="hsl(212, 85%, 50%)"></circle><circle r="44.5" cx="1602" cy="400.5" fill="hsl(216, 85%, 50%)"></circle><circle r="44.5" cx="1602" cy="489.5" fill="hsl(221, 85%, 50%)"></circle><circle r="44.5" cx="1602" cy="578.5" fill="hsl(225, 85%, 50%)"></circle><circle r="44.5" cx="1602" cy="667.5" fill="hsl(230, 85%, 50%)"></circle><circle r="44.5" cx="1602" cy="756.5" fill="hsl(235, 85%, 50%)"></circle><circle r="44.5" cx="1602" cy="845.5" fill="hsl(239, 85%, 50%)"></circle><circle r="44.5" cx="1691" cy="44.5" fill="hsl(203, 85%, 50%)"></circle><circle r="44.5" cx="1691" cy="133.5" fill="hsl(205, 85%, 50%)"></circle><circle r="44.5" cx="1691" cy="222.5" fill="hsl(209, 85%, 50%)"></circle><circle r="44.5" cx="1691" cy="311.5" fill="hsl(212, 85%, 50%)"></circle><circle r="44.5" cx="1691" cy="400.5" fill="hsl(216, 85%, 50%)"></circle><circle r="44.5" cx="1691" cy="489.5" fill="hsl(221, 85%, 50%)"></circle><circle r="44.5" cx="1691" cy="578.5" fill="hsl(225, 85%, 50%)"></circle><circle r="44.5" cx="1691" cy="667.5" fill="hsl(230, 85%, 50%)"></circle><circle r="44.5" cx="1691" cy="756.5" fill="hsl(235, 85%, 50%)"></circle><circle r="44.5" cx="1691" cy="845.5" fill="hsl(239, 85%, 50%)"></circle><circle r="44.5" cx="1780" cy="44.5" fill="hsl(203, 85%, 50%)"></circle><circle r="44.5" cx="1780" cy="133.5" fill="hsl(205, 85%, 50%)"></circle><circle r="44.5" cx="1780" cy="222.5" fill="hsl(209, 85%, 50%)"></circle><circle r="44.5" cx="1780" cy="311.5" fill="hsl(212, 85%, 50%)"></circle><circle r="44.5" cx="1780" cy="400.5" fill="hsl(216, 85%, 50%)"></circle><circle r="44.5" cx="1780" cy="489.5" fill="hsl(221, 85%, 50%)"></circle><circle r="44.5" cx="1780" cy="578.5" fill="hsl(225, 85%, 50%)"></circle><circle r="44.5" cx="1780" cy="667.5" fill="hsl(230, 85%, 50%)"></circle><circle r="44.5" cx="1780" cy="756.5" fill="hsl(235, 85%, 50%)"></circle><circle r="44.5" cx="1780" cy="845.5" fill="hsl(239, 85%, 50%)"></circle></g></svg>
