<svg xmlns="http://www.w3.org/2000/svg" version="1.1" xmlns:xlink="http://www.w3.org/1999/xlink" xmlns:svgjs="http://svgjs.dev/svgjs" viewBox="0 0 1422 800"><g><circle r="37.5" cx="0" cy="0" fill="hsl(234, 74%, 15%)"></circle><circle r="37.5" cx="0" cy="75" fill="hsl(233, 74%, 15%)"></circle><circle r="37.5" cx="0" cy="150" fill="hsl(233, 74%, 15%)"></circle><circle r="37.5" cx="0" cy="225" fill="hsl(230, 74%, 15%)"></circle><circle r="37.5" cx="0" cy="300" fill="hsl(227, 74%, 15%)"></circle><circle r="37.5" cx="0" cy="375" fill="hsl(226, 74%, 15%)"></circle><circle r="37.5" cx="0" cy="450" fill="hsl(228, 74%, 15%)"></circle><circle r="37.5" cx="0" cy="525" fill="hsl(230, 74%, 15%)"></circle><circle r="37.5" cx="0" cy="600" fill="hsl(235, 74%, 15%)"></circle><circle r="37.5" cx="0" cy="675" fill="hsl(239, 74%, 15%)"></circle><circle r="37.5" cx="0" cy="750" fill="hsl(240, 74%, 15%)"></circle><circle r="37.5" cx="0" cy="825" fill="hsl(238, 74%, 15%)"></circle><circle r="37.5" cx="0" cy="900" fill="hsl(231, 74%, 15%)"></circle><circle r="37.5" cx="75" cy="0" fill="hsl(227, 74%, 15%)"></circle><circle r="37.5" cx="75" cy="75" fill="hsl(228, 74%, 15%)"></circle><circle r="37.5" cx="75" cy="150" fill="hsl(232, 74%, 15%)"></circle><circle r="37.5" cx="75" cy="225" fill="hsl(234, 74%, 15%)"></circle><circle r="37.5" cx="75" cy="300" fill="hsl(233, 74%, 15%)"></circle><circle r="37.5" cx="75" cy="375" fill="hsl(230, 74%, 15%)"></circle><circle r="37.5" cx="75" cy="450" fill="hsl(227, 74%, 15%)"></circle><circle r="37.5" cx="75" cy="525" fill="hsl(228, 74%, 15%)"></circle><circle r="37.5" cx="75" cy="600" fill="hsl(234, 74%, 15%)"></circle><circle r="37.5" cx="75" cy="675" fill="hsl(239, 74%, 15%)"></circle><circle r="37.5" cx="75" cy="750" fill="hsl(241, 74%, 15%)"></circle><circle r="37.5" cx="75" cy="825" fill="hsl(242, 74%, 15%)"></circle><circle r="37.5" cx="75" cy="900" fill="hsl(238, 74%, 15%)"></circle><circle r="37.5" cx="150" cy="0" fill="hsl(226, 74%, 15%)"></circle><circle r="37.5" cx="150" cy="75" fill="hsl(227, 74%, 15%)"></circle><circle r="37.5" cx="150" cy="150" fill="hsl(232, 74%, 15%)"></circle><circle r="37.5" cx="150" cy="225" fill="hsl(239, 74%, 15%)"></circle><circle r="37.5" cx="150" cy="300" fill="hsl(243, 74%, 15%)"></circle><circle r="37.5" cx="150" cy="375" fill="hsl(240, 74%, 15%)"></circle><circle r="37.5" cx="150" cy="450" fill="hsl(229, 74%, 15%)"></circle><circle r="37.5" cx="150" cy="525" fill="hsl(226, 74%, 15%)"></circle><circle r="37.5" cx="150" cy="600" fill="hsl(234, 74%, 15%)"></circle><circle r="37.5" cx="150" cy="675" fill="hsl(241, 74%, 15%)"></circle><circle r="37.5" cx="150" cy="750" fill="hsl(243, 74%, 15%)"></circle><circle r="37.5" cx="150" cy="825" fill="hsl(244, 74%, 15%)"></circle><circle r="37.5" cx="150" cy="900" fill="hsl(244, 74%, 15%)"></circle><circle r="37.5" cx="225" cy="0" fill="hsl(228, 74%, 15%)"></circle><circle r="37.5" cx="225" cy="75" fill="hsl(227, 74%, 15%)"></circle><circle r="37.5" cx="225" cy="150" fill="hsl(228, 74%, 15%)"></circle><circle r="37.5" cx="225" cy="225" fill="hsl(234, 74%, 15%)"></circle><circle r="37.5" cx="225" cy="300" fill="hsl(242, 74%, 15%)"></circle><circle r="37.5" cx="225" cy="375" fill="hsl(242, 74%, 15%)"></circle><circle r="37.5" cx="225" cy="450" fill="hsl(232, 74%, 15%)"></circle><circle r="37.5" cx="225" cy="525" fill="hsl(228, 74%, 15%)"></circle><circle r="37.5" cx="225" cy="600" fill="hsl(234, 74%, 15%)"></circle><circle r="37.5" cx="225" cy="675" fill="hsl(240, 74%, 15%)"></circle><circle r="37.5" cx="225" cy="750" fill="hsl(240, 74%, 15%)"></circle><circle r="37.5" cx="225" cy="825" fill="hsl(242, 74%, 15%)"></circle><circle r="37.5" cx="225" cy="900" fill="hsl(244, 74%, 15%)"></circle><circle r="37.5" cx="300" cy="0" fill="hsl(226, 74%, 15%)"></circle><circle r="37.5" cx="300" cy="75" fill="hsl(224, 74%, 15%)"></circle><circle r="37.5" cx="300" cy="150" fill="hsl(222, 74%, 15%)"></circle><circle r="37.5" cx="300" cy="225" fill="hsl(225, 74%, 15%)"></circle><circle r="37.5" cx="300" cy="300" fill="hsl(234, 74%, 15%)"></circle><circle r="37.5" cx="300" cy="375" fill="hsl(238, 74%, 15%)"></circle><circle r="37.5" cx="300" cy="450" fill="hsl(236, 74%, 15%)"></circle><circle r="37.5" cx="300" cy="525" fill="hsl(233, 74%, 15%)"></circle><circle r="37.5" cx="300" cy="600" fill="hsl(234, 74%, 15%)"></circle><circle r="37.5" cx="300" cy="675" fill="hsl(236, 74%, 15%)"></circle><circle r="37.5" cx="300" cy="750" fill="hsl(236, 74%, 15%)"></circle><circle r="37.5" cx="300" cy="825" fill="hsl(240, 74%, 15%)"></circle><circle r="37.5" cx="300" cy="900" fill="hsl(245, 74%, 15%)"></circle><circle r="37.5" cx="375" cy="0" fill="hsl(226, 74%, 15%)"></circle><circle r="37.5" cx="375" cy="75" fill="hsl(225, 74%, 15%)"></circle><circle r="37.5" cx="375" cy="150" fill="hsl(223, 74%, 15%)"></circle><circle r="37.5" cx="375" cy="225" fill="hsl(223, 74%, 15%)"></circle><circle r="37.5" cx="375" cy="300" fill="hsl(230, 74%, 15%)"></circle><circle r="37.5" cx="375" cy="375" fill="hsl(238, 74%, 15%)"></circle><circle r="37.5" cx="375" cy="450" fill="hsl(242, 74%, 15%)"></circle><circle r="37.5" cx="375" cy="525" fill="hsl(239, 74%, 15%)"></circle><circle r="37.5" cx="375" cy="600" fill="hsl(234, 74%, 15%)"></circle><circle r="37.5" cx="375" cy="675" fill="hsl(231, 74%, 15%)"></circle><circle r="37.5" cx="375" cy="750" fill="hsl(230, 74%, 15%)"></circle><circle r="37.5" cx="375" cy="825" fill="hsl(236, 74%, 15%)"></circle><circle r="37.5" cx="375" cy="900" fill="hsl(243, 74%, 15%)"></circle><circle r="37.5" cx="450" cy="0" fill="hsl(228, 74%, 15%)"></circle><circle r="37.5" cx="450" cy="75" fill="hsl(226, 74%, 15%)"></circle><circle r="37.5" cx="450" cy="150" fill="hsl(225, 74%, 15%)"></circle><circle r="37.5" cx="450" cy="225" fill="hsl(225, 74%, 15%)"></circle><circle r="37.5" cx="450" cy="300" fill="hsl(232, 74%, 15%)"></circle><circle r="37.5" cx="450" cy="375" fill="hsl(241, 74%, 15%)"></circle><circle r="37.5" cx="450" cy="450" fill="hsl(244, 74%, 15%)"></circle><circle r="37.5" cx="450" cy="525" fill="hsl(238, 74%, 15%)"></circle><circle r="37.5" cx="450" cy="600" fill="hsl(230, 74%, 15%)"></circle><circle r="37.5" cx="450" cy="675" fill="hsl(226, 74%, 15%)"></circle><circle r="37.5" cx="450" cy="750" fill="hsl(223, 74%, 15%)"></circle><circle r="37.5" cx="450" cy="825" fill="hsl(227, 74%, 15%)"></circle><circle r="37.5" cx="450" cy="900" fill="hsl(236, 74%, 15%)"></circle><circle r="37.5" cx="525" cy="0" fill="hsl(230, 74%, 15%)"></circle><circle r="37.5" cx="525" cy="75" fill="hsl(228, 74%, 15%)"></circle><circle r="37.5" cx="525" cy="150" fill="hsl(226, 74%, 15%)"></circle><circle r="37.5" cx="525" cy="225" fill="hsl(227, 74%, 15%)"></circle><circle r="37.5" cx="525" cy="300" fill="hsl(233, 74%, 15%)"></circle><circle r="37.5" cx="525" cy="375" fill="hsl(239, 74%, 15%)"></circle><circle r="37.5" cx="525" cy="450" fill="hsl(238, 74%, 15%)"></circle><circle r="37.5" cx="525" cy="525" fill="hsl(229, 74%, 15%)"></circle><circle r="37.5" cx="525" cy="600" fill="hsl(224, 74%, 15%)"></circle><circle r="37.5" cx="525" cy="675" fill="hsl(225, 74%, 15%)"></circle><circle r="37.5" cx="525" cy="750" fill="hsl(225, 74%, 15%)"></circle><circle r="37.5" cx="525" cy="825" fill="hsl(225, 74%, 15%)"></circle><circle r="37.5" cx="525" cy="900" fill="hsl(229, 74%, 15%)"></circle><circle r="37.5" cx="600" cy="0" fill="hsl(232, 74%, 15%)"></circle><circle r="37.5" cx="600" cy="75" fill="hsl(234, 74%, 15%)"></circle><circle r="37.5" cx="600" cy="150" fill="hsl(234, 74%, 15%)"></circle><circle r="37.5" cx="600" cy="225" fill="hsl(234, 74%, 15%)"></circle><circle r="37.5" cx="600" cy="300" fill="hsl(234, 74%, 15%)"></circle><circle r="37.5" cx="600" cy="375" fill="hsl(235, 74%, 15%)"></circle><circle r="37.5" cx="600" cy="450" fill="hsl(231, 74%, 15%)"></circle><circle r="37.5" cx="600" cy="525" fill="hsl(224, 74%, 15%)"></circle><circle r="37.5" cx="600" cy="600" fill="hsl(225, 74%, 15%)"></circle><circle r="37.5" cx="600" cy="675" fill="hsl(232, 74%, 15%)"></circle><circle r="37.5" cx="600" cy="750" fill="hsl(237, 74%, 15%)"></circle><circle r="37.5" cx="600" cy="825" fill="hsl(234, 74%, 15%)"></circle><circle r="37.5" cx="600" cy="900" fill="hsl(231, 74%, 15%)"></circle><circle r="37.5" cx="675" cy="0" fill="hsl(232, 74%, 15%)"></circle><circle r="37.5" cx="675" cy="75" fill="hsl(238, 74%, 15%)"></circle><circle r="37.5" cx="675" cy="150" fill="hsl(241, 74%, 15%)"></circle><circle r="37.5" cx="675" cy="225" fill="hsl(240, 74%, 15%)"></circle><circle r="37.5" cx="675" cy="300" fill="hsl(238, 74%, 15%)"></circle><circle r="37.5" cx="675" cy="375" fill="hsl(238, 74%, 15%)"></circle><circle r="37.5" cx="675" cy="450" fill="hsl(235, 74%, 15%)"></circle><circle r="37.5" cx="675" cy="525" fill="hsl(229, 74%, 15%)"></circle><circle r="37.5" cx="675" cy="600" fill="hsl(231, 74%, 15%)"></circle><circle r="37.5" cx="675" cy="675" fill="hsl(237, 74%, 15%)"></circle><circle r="37.5" cx="675" cy="750" fill="hsl(241, 74%, 15%)"></circle><circle r="37.5" cx="675" cy="825" fill="hsl(239, 74%, 15%)"></circle><circle r="37.5" cx="675" cy="900" fill="hsl(233, 74%, 15%)"></circle><circle r="37.5" cx="750" cy="0" fill="hsl(227, 74%, 15%)"></circle><circle r="37.5" cx="750" cy="75" fill="hsl(234, 74%, 15%)"></circle><circle r="37.5" cx="750" cy="150" fill="hsl(239, 74%, 15%)"></circle><circle r="37.5" cx="750" cy="225" fill="hsl(239, 74%, 15%)"></circle><circle r="37.5" cx="750" cy="300" fill="hsl(240, 74%, 15%)"></circle><circle r="37.5" cx="750" cy="375" fill="hsl(241, 74%, 15%)"></circle><circle r="37.5" cx="750" cy="450" fill="hsl(241, 74%, 15%)"></circle><circle r="37.5" cx="750" cy="525" fill="hsl(237, 74%, 15%)"></circle><circle r="37.5" cx="750" cy="600" fill="hsl(235, 74%, 15%)"></circle><circle r="37.5" cx="750" cy="675" fill="hsl(234, 74%, 15%)"></circle><circle r="37.5" cx="750" cy="750" fill="hsl(235, 74%, 15%)"></circle><circle r="37.5" cx="750" cy="825" fill="hsl(235, 74%, 15%)"></circle><circle r="37.5" cx="750" cy="900" fill="hsl(232, 74%, 15%)"></circle><circle r="37.5" cx="825" cy="0" fill="hsl(222, 74%, 15%)"></circle><circle r="37.5" cx="825" cy="75" fill="hsl(226, 74%, 15%)"></circle><circle r="37.5" cx="825" cy="150" fill="hsl(233, 74%, 15%)"></circle><circle r="37.5" cx="825" cy="225" fill="hsl(235, 74%, 15%)"></circle><circle r="37.5" cx="825" cy="300" fill="hsl(235, 74%, 15%)"></circle><circle r="37.5" cx="825" cy="375" fill="hsl(236, 74%, 15%)"></circle><circle r="37.5" cx="825" cy="450" fill="hsl(236, 74%, 15%)"></circle><circle r="37.5" cx="825" cy="525" fill="hsl(235, 74%, 15%)"></circle><circle r="37.5" cx="825" cy="600" fill="hsl(232, 74%, 15%)"></circle><circle r="37.5" cx="825" cy="675" fill="hsl(229, 74%, 15%)"></circle><circle r="37.5" cx="825" cy="750" fill="hsl(227, 74%, 15%)"></circle><circle r="37.5" cx="825" cy="825" fill="hsl(228, 74%, 15%)"></circle><circle r="37.5" cx="825" cy="900" fill="hsl(232, 74%, 15%)"></circle><circle r="37.5" cx="900" cy="0" fill="hsl(223, 74%, 15%)"></circle><circle r="37.5" cx="900" cy="75" fill="hsl(229, 74%, 15%)"></circle><circle r="37.5" cx="900" cy="150" fill="hsl(237, 74%, 15%)"></circle><circle r="37.5" cx="900" cy="225" fill="hsl(237, 74%, 15%)"></circle><circle r="37.5" cx="900" cy="300" fill="hsl(231, 74%, 15%)"></circle><circle r="37.5" cx="900" cy="375" fill="hsl(228, 74%, 15%)"></circle><circle r="37.5" cx="900" cy="450" fill="hsl(228, 74%, 15%)"></circle><circle r="37.5" cx="900" cy="525" fill="hsl(230, 74%, 15%)"></circle><circle r="37.5" cx="900" cy="600" fill="hsl(231, 74%, 15%)"></circle><circle r="37.5" cx="900" cy="675" fill="hsl(229, 74%, 15%)"></circle><circle r="37.5" cx="900" cy="750" fill="hsl(228, 74%, 15%)"></circle><circle r="37.5" cx="900" cy="825" fill="hsl(230, 74%, 15%)"></circle><circle r="37.5" cx="900" cy="900" fill="hsl(236, 74%, 15%)"></circle><circle r="37.5" cx="975" cy="0" fill="hsl(230, 74%, 15%)"></circle><circle r="37.5" cx="975" cy="75" fill="hsl(237, 74%, 15%)"></circle><circle r="37.5" cx="975" cy="150" fill="hsl(243, 74%, 15%)"></circle><circle r="37.5" cx="975" cy="225" fill="hsl(240, 74%, 15%)"></circle><circle r="37.5" cx="975" cy="300" fill="hsl(232, 74%, 15%)"></circle><circle r="37.5" cx="975" cy="375" fill="hsl(228, 74%, 15%)"></circle><circle r="37.5" cx="975" cy="450" fill="hsl(226, 74%, 15%)"></circle><circle r="37.5" cx="975" cy="525" fill="hsl(227, 74%, 15%)"></circle><circle r="37.5" cx="975" cy="600" fill="hsl(230, 74%, 15%)"></circle><circle r="37.5" cx="975" cy="675" fill="hsl(233, 74%, 15%)"></circle><circle r="37.5" cx="975" cy="750" fill="hsl(235, 74%, 15%)"></circle><circle r="37.5" cx="975" cy="825" fill="hsl(237, 74%, 15%)"></circle><circle r="37.5" cx="975" cy="900" fill="hsl(241, 74%, 15%)"></circle><circle r="37.5" cx="1050" cy="0" fill="hsl(235, 74%, 15%)"></circle><circle r="37.5" cx="1050" cy="75" fill="hsl(241, 74%, 15%)"></circle><circle r="37.5" cx="1050" cy="150" fill="hsl(244, 74%, 15%)"></circle><circle r="37.5" cx="1050" cy="225" fill="hsl(240, 74%, 15%)"></circle><circle r="37.5" cx="1050" cy="300" fill="hsl(238, 74%, 15%)"></circle><circle r="37.5" cx="1050" cy="375" fill="hsl(239, 74%, 15%)"></circle><circle r="37.5" cx="1050" cy="450" fill="hsl(234, 74%, 15%)"></circle><circle r="37.5" cx="1050" cy="525" fill="hsl(227, 74%, 15%)"></circle><circle r="37.5" cx="1050" cy="600" fill="hsl(228, 74%, 15%)"></circle><circle r="37.5" cx="1050" cy="675" fill="hsl(234, 74%, 15%)"></circle><circle r="37.5" cx="1050" cy="750" fill="hsl(240, 74%, 15%)"></circle><circle r="37.5" cx="1050" cy="825" fill="hsl(242, 74%, 15%)"></circle><circle r="37.5" cx="1050" cy="900" fill="hsl(242, 74%, 15%)"></circle><circle r="37.5" cx="1125" cy="0" fill="hsl(229, 74%, 15%)"></circle><circle r="37.5" cx="1125" cy="75" fill="hsl(232, 74%, 15%)"></circle><circle r="37.5" cx="1125" cy="150" fill="hsl(234, 74%, 15%)"></circle><circle r="37.5" cx="1125" cy="225" fill="hsl(233, 74%, 15%)"></circle><circle r="37.5" cx="1125" cy="300" fill="hsl(238, 74%, 15%)"></circle><circle r="37.5" cx="1125" cy="375" fill="hsl(244, 74%, 15%)"></circle><circle r="37.5" cx="1125" cy="450" fill="hsl(241, 74%, 15%)"></circle><circle r="37.5" cx="1125" cy="525" fill="hsl(229, 74%, 15%)"></circle><circle r="37.5" cx="1125" cy="600" fill="hsl(227, 74%, 15%)"></circle><circle r="37.5" cx="1125" cy="675" fill="hsl(234, 74%, 15%)"></circle><circle r="37.5" cx="1125" cy="750" fill="hsl(241, 74%, 15%)"></circle><circle r="37.5" cx="1125" cy="825" fill="hsl(241, 74%, 15%)"></circle><circle r="37.5" cx="1125" cy="900" fill="hsl(238, 74%, 15%)"></circle><circle r="37.5" cx="1200" cy="0" fill="hsl(224, 74%, 15%)"></circle><circle r="37.5" cx="1200" cy="75" fill="hsl(222, 74%, 15%)"></circle><circle r="37.5" cx="1200" cy="150" fill="hsl(224, 74%, 15%)"></circle><circle r="37.5" cx="1200" cy="225" fill="hsl(224, 74%, 15%)"></circle><circle r="37.5" cx="1200" cy="300" fill="hsl(230, 74%, 15%)"></circle><circle r="37.5" cx="1200" cy="375" fill="hsl(238, 74%, 15%)"></circle><circle r="37.5" cx="1200" cy="450" fill="hsl(240, 74%, 15%)"></circle><circle r="37.5" cx="1200" cy="525" fill="hsl(233, 74%, 15%)"></circle><circle r="37.5" cx="1200" cy="600" fill="hsl(230, 74%, 15%)"></circle><circle r="37.5" cx="1200" cy="675" fill="hsl(234, 74%, 15%)"></circle><circle r="37.5" cx="1200" cy="750" fill="hsl(239, 74%, 15%)"></circle><circle r="37.5" cx="1200" cy="825" fill="hsl(239, 74%, 15%)"></circle><circle r="37.5" cx="1200" cy="900" fill="hsl(235, 74%, 15%)"></circle><circle r="37.5" cx="1275" cy="0" fill="hsl(229, 74%, 15%)"></circle><circle r="37.5" cx="1275" cy="75" fill="hsl(224, 74%, 15%)"></circle><circle r="37.5" cx="1275" cy="150" fill="hsl(223, 74%, 15%)"></circle><circle r="37.5" cx="1275" cy="225" fill="hsl(222, 74%, 15%)"></circle><circle r="37.5" cx="1275" cy="300" fill="hsl(224, 74%, 15%)"></circle><circle r="37.5" cx="1275" cy="375" fill="hsl(231, 74%, 15%)"></circle><circle r="37.5" cx="1275" cy="450" fill="hsl(236, 74%, 15%)"></circle><circle r="37.5" cx="1275" cy="525" fill="hsl(236, 74%, 15%)"></circle><circle r="37.5" cx="1275" cy="600" fill="hsl(237, 74%, 15%)"></circle><circle r="37.5" cx="1275" cy="675" fill="hsl(238, 74%, 15%)"></circle><circle r="37.5" cx="1275" cy="750" fill="hsl(239, 74%, 15%)"></circle><circle r="37.5" cx="1275" cy="825" fill="hsl(240, 74%, 15%)"></circle><circle r="37.5" cx="1275" cy="900" fill="hsl(235, 74%, 15%)"></circle><circle r="37.5" cx="1350" cy="0" fill="hsl(237, 74%, 15%)"></circle><circle r="37.5" cx="1350" cy="75" fill="hsl(231, 74%, 15%)"></circle><circle r="37.5" cx="1350" cy="150" fill="hsl(228, 74%, 15%)"></circle><circle r="37.5" cx="1350" cy="225" fill="hsl(224, 74%, 15%)"></circle><circle r="37.5" cx="1350" cy="300" fill="hsl(223, 74%, 15%)"></circle><circle r="37.5" cx="1350" cy="375" fill="hsl(228, 74%, 15%)"></circle><circle r="37.5" cx="1350" cy="450" fill="hsl(232, 74%, 15%)"></circle><circle r="37.5" cx="1350" cy="525" fill="hsl(237, 74%, 15%)"></circle><circle r="37.5" cx="1350" cy="600" fill="hsl(243, 74%, 15%)"></circle><circle r="37.5" cx="1350" cy="675" fill="hsl(244, 74%, 15%)"></circle><circle r="37.5" cx="1350" cy="750" fill="hsl(242, 74%, 15%)"></circle><circle r="37.5" cx="1350" cy="825" fill="hsl(242, 74%, 15%)"></circle><circle r="37.5" cx="1350" cy="900" fill="hsl(235, 74%, 15%)"></circle><circle r="37.5" cx="1425" cy="0" fill="hsl(240, 74%, 15%)"></circle><circle r="37.5" cx="1425" cy="75" fill="hsl(235, 74%, 15%)"></circle><circle r="37.5" cx="1425" cy="150" fill="hsl(231, 74%, 15%)"></circle><circle r="37.5" cx="1425" cy="225" fill="hsl(225, 74%, 15%)"></circle><circle r="37.5" cx="1425" cy="300" fill="hsl(222, 74%, 15%)"></circle><circle r="37.5" cx="1425" cy="375" fill="hsl(225, 74%, 15%)"></circle><circle r="37.5" cx="1425" cy="450" fill="hsl(227, 74%, 15%)"></circle><circle r="37.5" cx="1425" cy="525" fill="hsl(232, 74%, 15%)"></circle><circle r="37.5" cx="1425" cy="600" fill="hsl(241, 74%, 15%)"></circle><circle r="37.5" cx="1425" cy="675" fill="hsl(244, 74%, 15%)"></circle><circle r="37.5" cx="1425" cy="750" fill="hsl(243, 74%, 15%)"></circle><circle r="37.5" cx="1425" cy="825" fill="hsl(241, 74%, 15%)"></circle><circle r="37.5" cx="1425" cy="900" fill="hsl(235, 74%, 15%)"></circle><circle r="37.5" cx="1500" cy="0" fill="hsl(240, 74%, 15%)"></circle><circle r="37.5" cx="1500" cy="75" fill="hsl(235, 74%, 15%)"></circle><circle r="37.5" cx="1500" cy="150" fill="hsl(231, 74%, 15%)"></circle><circle r="37.5" cx="1500" cy="225" fill="hsl(225, 74%, 15%)"></circle><circle r="37.5" cx="1500" cy="300" fill="hsl(222, 74%, 15%)"></circle><circle r="37.5" cx="1500" cy="375" fill="hsl(225, 74%, 15%)"></circle><circle r="37.5" cx="1500" cy="450" fill="hsl(227, 74%, 15%)"></circle><circle r="37.5" cx="1500" cy="525" fill="hsl(232, 74%, 15%)"></circle><circle r="37.5" cx="1500" cy="600" fill="hsl(241, 74%, 15%)"></circle><circle r="37.5" cx="1500" cy="675" fill="hsl(244, 74%, 15%)"></circle><circle r="37.5" cx="1500" cy="750" fill="hsl(243, 74%, 15%)"></circle><circle r="37.5" cx="1500" cy="825" fill="hsl(241, 74%, 15%)"></circle><circle r="37.5" cx="1500" cy="900" fill="hsl(235, 74%, 15%)"></circle><circle r="37.5" cx="1575" cy="0" fill="hsl(240, 74%, 15%)"></circle><circle r="37.5" cx="1575" cy="75" fill="hsl(235, 74%, 15%)"></circle><circle r="37.5" cx="1575" cy="150" fill="hsl(231, 74%, 15%)"></circle><circle r="37.5" cx="1575" cy="225" fill="hsl(225, 74%, 15%)"></circle><circle r="37.5" cx="1575" cy="300" fill="hsl(222, 74%, 15%)"></circle><circle r="37.5" cx="1575" cy="375" fill="hsl(225, 74%, 15%)"></circle><circle r="37.5" cx="1575" cy="450" fill="hsl(227, 74%, 15%)"></circle><circle r="37.5" cx="1575" cy="525" fill="hsl(232, 74%, 15%)"></circle><circle r="37.5" cx="1575" cy="600" fill="hsl(241, 74%, 15%)"></circle><circle r="37.5" cx="1575" cy="675" fill="hsl(244, 74%, 15%)"></circle><circle r="37.5" cx="1575" cy="750" fill="hsl(243, 74%, 15%)"></circle><circle r="37.5" cx="1575" cy="825" fill="hsl(241, 74%, 15%)"></circle><circle r="37.5" cx="1575" cy="900" fill="hsl(235, 74%, 15%)"></circle><circle r="37.5" cx="1650" cy="0" fill="hsl(240, 74%, 15%)"></circle><circle r="37.5" cx="1650" cy="75" fill="hsl(235, 74%, 15%)"></circle><circle r="37.5" cx="1650" cy="150" fill="hsl(231, 74%, 15%)"></circle><circle r="37.5" cx="1650" cy="225" fill="hsl(225, 74%, 15%)"></circle><circle r="37.5" cx="1650" cy="300" fill="hsl(222, 74%, 15%)"></circle><circle r="37.5" cx="1650" cy="375" fill="hsl(225, 74%, 15%)"></circle><circle r="37.5" cx="1650" cy="450" fill="hsl(227, 74%, 15%)"></circle><circle r="37.5" cx="1650" cy="525" fill="hsl(232, 74%, 15%)"></circle><circle r="37.5" cx="1650" cy="600" fill="hsl(241, 74%, 15%)"></circle><circle r="37.5" cx="1650" cy="675" fill="hsl(244, 74%, 15%)"></circle><circle r="37.5" cx="1650" cy="750" fill="hsl(243, 74%, 15%)"></circle><circle r="37.5" cx="1650" cy="825" fill="hsl(241, 74%, 15%)"></circle><circle r="37.5" cx="1650" cy="900" fill="hsl(235, 74%, 15%)"></circle><circle r="37.5" cx="1725" cy="0" fill="hsl(240, 74%, 15%)"></circle><circle r="37.5" cx="1725" cy="75" fill="hsl(235, 74%, 15%)"></circle><circle r="37.5" cx="1725" cy="150" fill="hsl(231, 74%, 15%)"></circle><circle r="37.5" cx="1725" cy="225" fill="hsl(225, 74%, 15%)"></circle><circle r="37.5" cx="1725" cy="300" fill="hsl(222, 74%, 15%)"></circle><circle r="37.5" cx="1725" cy="375" fill="hsl(225, 74%, 15%)"></circle><circle r="37.5" cx="1725" cy="450" fill="hsl(227, 74%, 15%)"></circle><circle r="37.5" cx="1725" cy="525" fill="hsl(232, 74%, 15%)"></circle><circle r="37.5" cx="1725" cy="600" fill="hsl(241, 74%, 15%)"></circle><circle r="37.5" cx="1725" cy="675" fill="hsl(244, 74%, 15%)"></circle><circle r="37.5" cx="1725" cy="750" fill="hsl(243, 74%, 15%)"></circle><circle r="37.5" cx="1725" cy="825" fill="hsl(241, 74%, 15%)"></circle><circle r="37.5" cx="1725" cy="900" fill="hsl(235, 74%, 15%)"></circle><circle r="37.5" cx="1800" cy="0" fill="hsl(240, 74%, 15%)"></circle><circle r="37.5" cx="1800" cy="75" fill="hsl(235, 74%, 15%)"></circle><circle r="37.5" cx="1800" cy="150" fill="hsl(231, 74%, 15%)"></circle><circle r="37.5" cx="1800" cy="225" fill="hsl(225, 74%, 15%)"></circle><circle r="37.5" cx="1800" cy="300" fill="hsl(222, 74%, 15%)"></circle><circle r="37.5" cx="1800" cy="375" fill="hsl(225, 74%, 15%)"></circle><circle r="37.5" cx="1800" cy="450" fill="hsl(227, 74%, 15%)"></circle><circle r="37.5" cx="1800" cy="525" fill="hsl(232, 74%, 15%)"></circle><circle r="37.5" cx="1800" cy="600" fill="hsl(241, 74%, 15%)"></circle><circle r="37.5" cx="1800" cy="675" fill="hsl(244, 74%, 15%)"></circle><circle r="37.5" cx="1800" cy="750" fill="hsl(243, 74%, 15%)"></circle><circle r="37.5" cx="1800" cy="825" fill="hsl(241, 74%, 15%)"></circle><circle r="37.5" cx="1800" cy="900" fill="hsl(235, 74%, 15%)"></circle></g><g transform="matrix(1,0,0,1,-37.5,0)"><circle r="37.5" cx="0" cy="37.5" fill="hsl(234, 74%, 15%)"></circle><circle r="37.5" cx="0" cy="112.5" fill="hsl(233, 74%, 15%)"></circle><circle r="37.5" cx="0" cy="187.5" fill="hsl(232, 74%, 15%)"></circle><circle r="37.5" cx="0" cy="262.5" fill="hsl(228, 74%, 15%)"></circle><circle r="37.5" cx="0" cy="337.5" fill="hsl(226, 74%, 15%)"></circle><circle r="37.5" cx="0" cy="412.5" fill="hsl(227, 74%, 15%)"></circle><circle r="37.5" cx="0" cy="487.5" fill="hsl(229, 74%, 15%)"></circle><circle r="37.5" cx="0" cy="562.5" fill="hsl(232, 74%, 15%)"></circle><circle r="37.5" cx="0" cy="637.5" fill="hsl(237, 74%, 15%)"></circle><circle r="37.5" cx="0" cy="712.5" fill="hsl(240, 74%, 15%)"></circle><circle r="37.5" cx="0" cy="787.5" fill="hsl(240, 74%, 15%)"></circle><circle r="37.5" cx="0" cy="862.5" fill="hsl(235, 74%, 15%)"></circle><circle r="37.5" cx="75" cy="37.5" fill="hsl(227, 74%, 15%)"></circle><circle r="37.5" cx="75" cy="112.5" fill="hsl(230, 74%, 15%)"></circle><circle r="37.5" cx="75" cy="187.5" fill="hsl(233, 74%, 15%)"></circle><circle r="37.5" cx="75" cy="262.5" fill="hsl(234, 74%, 15%)"></circle><circle r="37.5" cx="75" cy="337.5" fill="hsl(231, 74%, 15%)"></circle><circle r="37.5" cx="75" cy="412.5" fill="hsl(228, 74%, 15%)"></circle><circle r="37.5" cx="75" cy="487.5" fill="hsl(227, 74%, 15%)"></circle><circle r="37.5" cx="75" cy="562.5" fill="hsl(230, 74%, 15%)"></circle><circle r="37.5" cx="75" cy="637.5" fill="hsl(237, 74%, 15%)"></circle><circle r="37.5" cx="75" cy="712.5" fill="hsl(240, 74%, 15%)"></circle><circle r="37.5" cx="75" cy="787.5" fill="hsl(242, 74%, 15%)"></circle><circle r="37.5" cx="75" cy="862.5" fill="hsl(241, 74%, 15%)"></circle><circle r="37.5" cx="150" cy="37.5" fill="hsl(226, 74%, 15%)"></circle><circle r="37.5" cx="150" cy="112.5" fill="hsl(229, 74%, 15%)"></circle><circle r="37.5" cx="150" cy="187.5" fill="hsl(235, 74%, 15%)"></circle><circle r="37.5" cx="150" cy="262.5" fill="hsl(241, 74%, 15%)"></circle><circle r="37.5" cx="150" cy="337.5" fill="hsl(243, 74%, 15%)"></circle><circle r="37.5" cx="150" cy="412.5" fill="hsl(234, 74%, 15%)"></circle><circle r="37.5" cx="150" cy="487.5" fill="hsl(226, 74%, 15%)"></circle><circle r="37.5" cx="150" cy="562.5" fill="hsl(229, 74%, 15%)"></circle><circle r="37.5" cx="150" cy="637.5" fill="hsl(238, 74%, 15%)"></circle><circle r="37.5" cx="150" cy="712.5" fill="hsl(242, 74%, 15%)"></circle><circle r="37.5" cx="150" cy="787.5" fill="hsl(243, 74%, 15%)"></circle><circle r="37.5" cx="150" cy="862.5" fill="hsl(245, 74%, 15%)"></circle><circle r="37.5" cx="225" cy="37.5" fill="hsl(227, 74%, 15%)"></circle><circle r="37.5" cx="225" cy="112.5" fill="hsl(227, 74%, 15%)"></circle><circle r="37.5" cx="225" cy="187.5" fill="hsl(229, 74%, 15%)"></circle><circle r="37.5" cx="225" cy="262.5" fill="hsl(238, 74%, 15%)"></circle><circle r="37.5" cx="225" cy="337.5" fill="hsl(243, 74%, 15%)"></circle><circle r="37.5" cx="225" cy="412.5" fill="hsl(237, 74%, 15%)"></circle><circle r="37.5" cx="225" cy="487.5" fill="hsl(228, 74%, 15%)"></circle><circle r="37.5" cx="225" cy="562.5" fill="hsl(230, 74%, 15%)"></circle><circle r="37.5" cx="225" cy="637.5" fill="hsl(237, 74%, 15%)"></circle><circle r="37.5" cx="225" cy="712.5" fill="hsl(240, 74%, 15%)"></circle><circle r="37.5" cx="225" cy="787.5" fill="hsl(240, 74%, 15%)"></circle><circle r="37.5" cx="225" cy="862.5" fill="hsl(244, 74%, 15%)"></circle><circle r="37.5" cx="300" cy="37.5" fill="hsl(225, 74%, 15%)"></circle><circle r="37.5" cx="300" cy="112.5" fill="hsl(223, 74%, 15%)"></circle><circle r="37.5" cx="300" cy="187.5" fill="hsl(223, 74%, 15%)"></circle><circle r="37.5" cx="300" cy="262.5" fill="hsl(228, 74%, 15%)"></circle><circle r="37.5" cx="300" cy="337.5" fill="hsl(237, 74%, 15%)"></circle><circle r="37.5" cx="300" cy="412.5" fill="hsl(238, 74%, 15%)"></circle><circle r="37.5" cx="300" cy="487.5" fill="hsl(235, 74%, 15%)"></circle><circle r="37.5" cx="300" cy="562.5" fill="hsl(233, 74%, 15%)"></circle><circle r="37.5" cx="300" cy="637.5" fill="hsl(235, 74%, 15%)"></circle><circle r="37.5" cx="300" cy="712.5" fill="hsl(235, 74%, 15%)"></circle><circle r="37.5" cx="300" cy="787.5" fill="hsl(237, 74%, 15%)"></circle><circle r="37.5" cx="300" cy="862.5" fill="hsl(243, 74%, 15%)"></circle><circle r="37.5" cx="375" cy="37.5" fill="hsl(225, 74%, 15%)"></circle><circle r="37.5" cx="375" cy="112.5" fill="hsl(224, 74%, 15%)"></circle><circle r="37.5" cx="375" cy="187.5" fill="hsl(222, 74%, 15%)"></circle><circle r="37.5" cx="375" cy="262.5" fill="hsl(225, 74%, 15%)"></circle><circle r="37.5" cx="375" cy="337.5" fill="hsl(234, 74%, 15%)"></circle><circle r="37.5" cx="375" cy="412.5" fill="hsl(242, 74%, 15%)"></circle><circle r="37.5" cx="375" cy="487.5" fill="hsl(241, 74%, 15%)"></circle><circle r="37.5" cx="375" cy="562.5" fill="hsl(237, 74%, 15%)"></circle><circle r="37.5" cx="375" cy="637.5" fill="hsl(233, 74%, 15%)"></circle><circle r="37.5" cx="375" cy="712.5" fill="hsl(229, 74%, 15%)"></circle><circle r="37.5" cx="375" cy="787.5" fill="hsl(231, 74%, 15%)"></circle><circle r="37.5" cx="375" cy="862.5" fill="hsl(240, 74%, 15%)"></circle><circle r="37.5" cx="450" cy="37.5" fill="hsl(227, 74%, 15%)"></circle><circle r="37.5" cx="450" cy="112.5" fill="hsl(226, 74%, 15%)"></circle><circle r="37.5" cx="450" cy="187.5" fill="hsl(224, 74%, 15%)"></circle><circle r="37.5" cx="450" cy="262.5" fill="hsl(227, 74%, 15%)"></circle><circle r="37.5" cx="450" cy="337.5" fill="hsl(237, 74%, 15%)"></circle><circle r="37.5" cx="450" cy="412.5" fill="hsl(245, 74%, 15%)"></circle><circle r="37.5" cx="450" cy="487.5" fill="hsl(242, 74%, 15%)"></circle><circle r="37.5" cx="450" cy="562.5" fill="hsl(234, 74%, 15%)"></circle><circle r="37.5" cx="450" cy="637.5" fill="hsl(228, 74%, 15%)"></circle><circle r="37.5" cx="450" cy="712.5" fill="hsl(224, 74%, 15%)"></circle><circle r="37.5" cx="450" cy="787.5" fill="hsl(224, 74%, 15%)"></circle><circle r="37.5" cx="450" cy="862.5" fill="hsl(231, 74%, 15%)"></circle><circle r="37.5" cx="525" cy="37.5" fill="hsl(229, 74%, 15%)"></circle><circle r="37.5" cx="525" cy="112.5" fill="hsl(227, 74%, 15%)"></circle><circle r="37.5" cx="525" cy="187.5" fill="hsl(226, 74%, 15%)"></circle><circle r="37.5" cx="525" cy="262.5" fill="hsl(229, 74%, 15%)"></circle><circle r="37.5" cx="525" cy="337.5" fill="hsl(236, 74%, 15%)"></circle><circle r="37.5" cx="525" cy="412.5" fill="hsl(240, 74%, 15%)"></circle><circle r="37.5" cx="525" cy="487.5" fill="hsl(234, 74%, 15%)"></circle><circle r="37.5" cx="525" cy="562.5" fill="hsl(226, 74%, 15%)"></circle><circle r="37.5" cx="525" cy="637.5" fill="hsl(224, 74%, 15%)"></circle><circle r="37.5" cx="525" cy="712.5" fill="hsl(225, 74%, 15%)"></circle><circle r="37.5" cx="525" cy="787.5" fill="hsl(224, 74%, 15%)"></circle><circle r="37.5" cx="525" cy="862.5" fill="hsl(226, 74%, 15%)"></circle><circle r="37.5" cx="600" cy="37.5" fill="hsl(233, 74%, 15%)"></circle><circle r="37.5" cx="600" cy="112.5" fill="hsl(234, 74%, 15%)"></circle><circle r="37.5" cx="600" cy="187.5" fill="hsl(234, 74%, 15%)"></circle><circle r="37.5" cx="600" cy="262.5" fill="hsl(234, 74%, 15%)"></circle><circle r="37.5" cx="600" cy="337.5" fill="hsl(235, 74%, 15%)"></circle><circle r="37.5" cx="600" cy="412.5" fill="hsl(234, 74%, 15%)"></circle><circle r="37.5" cx="600" cy="487.5" fill="hsl(228, 74%, 15%)"></circle><circle r="37.5" cx="600" cy="562.5" fill="hsl(223, 74%, 15%)"></circle><circle r="37.5" cx="600" cy="637.5" fill="hsl(228, 74%, 15%)"></circle><circle r="37.5" cx="600" cy="712.5" fill="hsl(236, 74%, 15%)"></circle><circle r="37.5" cx="600" cy="787.5" fill="hsl(236, 74%, 15%)"></circle><circle r="37.5" cx="600" cy="862.5" fill="hsl(233, 74%, 15%)"></circle><circle r="37.5" cx="675" cy="37.5" fill="hsl(235, 74%, 15%)"></circle><circle r="37.5" cx="675" cy="112.5" fill="hsl(240, 74%, 15%)"></circle><circle r="37.5" cx="675" cy="187.5" fill="hsl(241, 74%, 15%)"></circle><circle r="37.5" cx="675" cy="262.5" fill="hsl(239, 74%, 15%)"></circle><circle r="37.5" cx="675" cy="337.5" fill="hsl(238, 74%, 15%)"></circle><circle r="37.5" cx="675" cy="412.5" fill="hsl(236, 74%, 15%)"></circle><circle r="37.5" cx="675" cy="487.5" fill="hsl(232, 74%, 15%)"></circle><circle r="37.5" cx="675" cy="562.5" fill="hsl(229, 74%, 15%)"></circle><circle r="37.5" cx="675" cy="637.5" fill="hsl(234, 74%, 15%)"></circle><circle r="37.5" cx="675" cy="712.5" fill="hsl(240, 74%, 15%)"></circle><circle r="37.5" cx="675" cy="787.5" fill="hsl(241, 74%, 15%)"></circle><circle r="37.5" cx="675" cy="862.5" fill="hsl(237, 74%, 15%)"></circle><circle r="37.5" cx="750" cy="37.5" fill="hsl(231, 74%, 15%)"></circle><circle r="37.5" cx="750" cy="112.5" fill="hsl(237, 74%, 15%)"></circle><circle r="37.5" cx="750" cy="187.5" fill="hsl(239, 74%, 15%)"></circle><circle r="37.5" cx="750" cy="262.5" fill="hsl(239, 74%, 15%)"></circle><circle r="37.5" cx="750" cy="337.5" fill="hsl(240, 74%, 15%)"></circle><circle r="37.5" cx="750" cy="412.5" fill="hsl(241, 74%, 15%)"></circle><circle r="37.5" cx="750" cy="487.5" fill="hsl(239, 74%, 15%)"></circle><circle r="37.5" cx="750" cy="562.5" fill="hsl(236, 74%, 15%)"></circle><circle r="37.5" cx="750" cy="637.5" fill="hsl(234, 74%, 15%)"></circle><circle r="37.5" cx="750" cy="712.5" fill="hsl(235, 74%, 15%)"></circle><circle r="37.5" cx="750" cy="787.5" fill="hsl(235, 74%, 15%)"></circle><circle r="37.5" cx="750" cy="862.5" fill="hsl(234, 74%, 15%)"></circle><circle r="37.5" cx="825" cy="37.5" fill="hsl(224, 74%, 15%)"></circle><circle r="37.5" cx="825" cy="112.5" fill="hsl(230, 74%, 15%)"></circle><circle r="37.5" cx="825" cy="187.5" fill="hsl(235, 74%, 15%)"></circle><circle r="37.5" cx="825" cy="262.5" fill="hsl(235, 74%, 15%)"></circle><circle r="37.5" cx="825" cy="337.5" fill="hsl(236, 74%, 15%)"></circle><circle r="37.5" cx="825" cy="412.5" fill="hsl(237, 74%, 15%)"></circle><circle r="37.5" cx="825" cy="487.5" fill="hsl(236, 74%, 15%)"></circle><circle r="37.5" cx="825" cy="562.5" fill="hsl(234, 74%, 15%)"></circle><circle r="37.5" cx="825" cy="637.5" fill="hsl(230, 74%, 15%)"></circle><circle r="37.5" cx="825" cy="712.5" fill="hsl(227, 74%, 15%)"></circle><circle r="37.5" cx="825" cy="787.5" fill="hsl(227, 74%, 15%)"></circle><circle r="37.5" cx="825" cy="862.5" fill="hsl(230, 74%, 15%)"></circle><circle r="37.5" cx="900" cy="37.5" fill="hsl(225, 74%, 15%)"></circle><circle r="37.5" cx="900" cy="112.5" fill="hsl(234, 74%, 15%)"></circle><circle r="37.5" cx="900" cy="187.5" fill="hsl(238, 74%, 15%)"></circle><circle r="37.5" cx="900" cy="262.5" fill="hsl(234, 74%, 15%)"></circle><circle r="37.5" cx="900" cy="337.5" fill="hsl(229, 74%, 15%)"></circle><circle r="37.5" cx="900" cy="412.5" fill="hsl(228, 74%, 15%)"></circle><circle r="37.5" cx="900" cy="487.5" fill="hsl(229, 74%, 15%)"></circle><circle r="37.5" cx="900" cy="562.5" fill="hsl(230, 74%, 15%)"></circle><circle r="37.5" cx="900" cy="637.5" fill="hsl(230, 74%, 15%)"></circle><circle r="37.5" cx="900" cy="712.5" fill="hsl(228, 74%, 15%)"></circle><circle r="37.5" cx="900" cy="787.5" fill="hsl(228, 74%, 15%)"></circle><circle r="37.5" cx="900" cy="862.5" fill="hsl(233, 74%, 15%)"></circle><circle r="37.5" cx="975" cy="37.5" fill="hsl(233, 74%, 15%)"></circle><circle r="37.5" cx="975" cy="112.5" fill="hsl(242, 74%, 15%)"></circle><circle r="37.5" cx="975" cy="187.5" fill="hsl(243, 74%, 15%)"></circle><circle r="37.5" cx="975" cy="262.5" fill="hsl(236, 74%, 15%)"></circle><circle r="37.5" cx="975" cy="337.5" fill="hsl(229, 74%, 15%)"></circle><circle r="37.5" cx="975" cy="412.5" fill="hsl(227, 74%, 15%)"></circle><circle r="37.5" cx="975" cy="487.5" fill="hsl(226, 74%, 15%)"></circle><circle r="37.5" cx="975" cy="562.5" fill="hsl(228, 74%, 15%)"></circle><circle r="37.5" cx="975" cy="637.5" fill="hsl(231, 74%, 15%)"></circle><circle r="37.5" cx="975" cy="712.5" fill="hsl(234, 74%, 15%)"></circle><circle r="37.5" cx="975" cy="787.5" fill="hsl(236, 74%, 15%)"></circle><circle r="37.5" cx="975" cy="862.5" fill="hsl(239, 74%, 15%)"></circle><circle r="37.5" cx="1050" cy="37.5" fill="hsl(238, 74%, 15%)"></circle><circle r="37.5" cx="1050" cy="112.5" fill="hsl(244, 74%, 15%)"></circle><circle r="37.5" cx="1050" cy="187.5" fill="hsl(242, 74%, 15%)"></circle><circle r="37.5" cx="1050" cy="262.5" fill="hsl(239, 74%, 15%)"></circle><circle r="37.5" cx="1050" cy="337.5" fill="hsl(239, 74%, 15%)"></circle><circle r="37.5" cx="1050" cy="412.5" fill="hsl(237, 74%, 15%)"></circle><circle r="37.5" cx="1050" cy="487.5" fill="hsl(231, 74%, 15%)"></circle><circle r="37.5" cx="1050" cy="562.5" fill="hsl(226, 74%, 15%)"></circle><circle r="37.5" cx="1050" cy="637.5" fill="hsl(230, 74%, 15%)"></circle><circle r="37.5" cx="1050" cy="712.5" fill="hsl(238, 74%, 15%)"></circle><circle r="37.5" cx="1050" cy="787.5" fill="hsl(241, 74%, 15%)"></circle><circle r="37.5" cx="1050" cy="862.5" fill="hsl(242, 74%, 15%)"></circle><circle r="37.5" cx="1125" cy="37.5" fill="hsl(230, 74%, 15%)"></circle><circle r="37.5" cx="1125" cy="112.5" fill="hsl(234, 74%, 15%)"></circle><circle r="37.5" cx="1125" cy="187.5" fill="hsl(233, 74%, 15%)"></circle><circle r="37.5" cx="1125" cy="262.5" fill="hsl(234, 74%, 15%)"></circle><circle r="37.5" cx="1125" cy="337.5" fill="hsl(242, 74%, 15%)"></circle><circle r="37.5" cx="1125" cy="412.5" fill="hsl(244, 74%, 15%)"></circle><circle r="37.5" cx="1125" cy="487.5" fill="hsl(236, 74%, 15%)"></circle><circle r="37.5" cx="1125" cy="562.5" fill="hsl(226, 74%, 15%)"></circle><circle r="37.5" cx="1125" cy="637.5" fill="hsl(230, 74%, 15%)"></circle><circle r="37.5" cx="1125" cy="712.5" fill="hsl(239, 74%, 15%)"></circle><circle r="37.5" cx="1125" cy="787.5" fill="hsl(242, 74%, 15%)"></circle><circle r="37.5" cx="1125" cy="862.5" fill="hsl(240, 74%, 15%)"></circle><circle r="37.5" cx="1200" cy="37.5" fill="hsl(222, 74%, 15%)"></circle><circle r="37.5" cx="1200" cy="112.5" fill="hsl(223, 74%, 15%)"></circle><circle r="37.5" cx="1200" cy="187.5" fill="hsl(224, 74%, 15%)"></circle><circle r="37.5" cx="1200" cy="262.5" fill="hsl(226, 74%, 15%)"></circle><circle r="37.5" cx="1200" cy="337.5" fill="hsl(234, 74%, 15%)"></circle><circle r="37.5" cx="1200" cy="412.5" fill="hsl(241, 74%, 15%)"></circle><circle r="37.5" cx="1200" cy="487.5" fill="hsl(237, 74%, 15%)"></circle><circle r="37.5" cx="1200" cy="562.5" fill="hsl(230, 74%, 15%)"></circle><circle r="37.5" cx="1200" cy="637.5" fill="hsl(232, 74%, 15%)"></circle><circle r="37.5" cx="1200" cy="712.5" fill="hsl(237, 74%, 15%)"></circle><circle r="37.5" cx="1200" cy="787.5" fill="hsl(240, 74%, 15%)"></circle><circle r="37.5" cx="1200" cy="862.5" fill="hsl(237, 74%, 15%)"></circle><circle r="37.5" cx="1275" cy="37.5" fill="hsl(226, 74%, 15%)"></circle><circle r="37.5" cx="1275" cy="112.5" fill="hsl(224, 74%, 15%)"></circle><circle r="37.5" cx="1275" cy="187.5" fill="hsl(223, 74%, 15%)"></circle><circle r="37.5" cx="1275" cy="262.5" fill="hsl(222, 74%, 15%)"></circle><circle r="37.5" cx="1275" cy="337.5" fill="hsl(228, 74%, 15%)"></circle><circle r="37.5" cx="1275" cy="412.5" fill="hsl(235, 74%, 15%)"></circle><circle r="37.5" cx="1275" cy="487.5" fill="hsl(237, 74%, 15%)"></circle><circle r="37.5" cx="1275" cy="562.5" fill="hsl(236, 74%, 15%)"></circle><circle r="37.5" cx="1275" cy="637.5" fill="hsl(238, 74%, 15%)"></circle><circle r="37.5" cx="1275" cy="712.5" fill="hsl(238, 74%, 15%)"></circle><circle r="37.5" cx="1275" cy="787.5" fill="hsl(240, 74%, 15%)"></circle><circle r="37.5" cx="1275" cy="862.5" fill="hsl(238, 74%, 15%)"></circle><circle r="37.5" cx="1350" cy="37.5" fill="hsl(234, 74%, 15%)"></circle><circle r="37.5" cx="1350" cy="112.5" fill="hsl(229, 74%, 15%)"></circle><circle r="37.5" cx="1350" cy="187.5" fill="hsl(227, 74%, 15%)"></circle><circle r="37.5" cx="1350" cy="262.5" fill="hsl(223, 74%, 15%)"></circle><circle r="37.5" cx="1350" cy="337.5" fill="hsl(226, 74%, 15%)"></circle><circle r="37.5" cx="1350" cy="412.5" fill="hsl(231, 74%, 15%)"></circle><circle r="37.5" cx="1350" cy="487.5" fill="hsl(234, 74%, 15%)"></circle><circle r="37.5" cx="1350" cy="562.5" fill="hsl(240, 74%, 15%)"></circle><circle r="37.5" cx="1350" cy="637.5" fill="hsl(244, 74%, 15%)"></circle><circle r="37.5" cx="1350" cy="712.5" fill="hsl(243, 74%, 15%)"></circle><circle r="37.5" cx="1350" cy="787.5" fill="hsl(242, 74%, 15%)"></circle><circle r="37.5" cx="1350" cy="862.5" fill="hsl(240, 74%, 15%)"></circle><circle r="37.5" cx="1425" cy="37.5" fill="hsl(237, 74%, 15%)"></circle><circle r="37.5" cx="1425" cy="112.5" fill="hsl(233, 74%, 15%)"></circle><circle r="37.5" cx="1425" cy="187.5" fill="hsl(229, 74%, 15%)"></circle><circle r="37.5" cx="1425" cy="262.5" fill="hsl(223, 74%, 15%)"></circle><circle r="37.5" cx="1425" cy="337.5" fill="hsl(224, 74%, 15%)"></circle><circle r="37.5" cx="1425" cy="412.5" fill="hsl(227, 74%, 15%)"></circle><circle r="37.5" cx="1425" cy="487.5" fill="hsl(228, 74%, 15%)"></circle><circle r="37.5" cx="1425" cy="562.5" fill="hsl(235, 74%, 15%)"></circle><circle r="37.5" cx="1425" cy="637.5" fill="hsl(243, 74%, 15%)"></circle><circle r="37.5" cx="1425" cy="712.5" fill="hsl(243, 74%, 15%)"></circle><circle r="37.5" cx="1425" cy="787.5" fill="hsl(242, 74%, 15%)"></circle><circle r="37.5" cx="1425" cy="862.5" fill="hsl(239, 74%, 15%)"></circle><circle r="37.5" cx="1500" cy="37.5" fill="hsl(237, 74%, 15%)"></circle><circle r="37.5" cx="1500" cy="112.5" fill="hsl(233, 74%, 15%)"></circle><circle r="37.5" cx="1500" cy="187.5" fill="hsl(229, 74%, 15%)"></circle><circle r="37.5" cx="1500" cy="262.5" fill="hsl(223, 74%, 15%)"></circle><circle r="37.5" cx="1500" cy="337.5" fill="hsl(224, 74%, 15%)"></circle><circle r="37.5" cx="1500" cy="412.5" fill="hsl(227, 74%, 15%)"></circle><circle r="37.5" cx="1500" cy="487.5" fill="hsl(228, 74%, 15%)"></circle><circle r="37.5" cx="1500" cy="562.5" fill="hsl(235, 74%, 15%)"></circle><circle r="37.5" cx="1500" cy="637.5" fill="hsl(243, 74%, 15%)"></circle><circle r="37.5" cx="1500" cy="712.5" fill="hsl(243, 74%, 15%)"></circle><circle r="37.5" cx="1500" cy="787.5" fill="hsl(242, 74%, 15%)"></circle><circle r="37.5" cx="1500" cy="862.5" fill="hsl(239, 74%, 15%)"></circle><circle r="37.5" cx="1575" cy="37.5" fill="hsl(237, 74%, 15%)"></circle><circle r="37.5" cx="1575" cy="112.5" fill="hsl(233, 74%, 15%)"></circle><circle r="37.5" cx="1575" cy="187.5" fill="hsl(229, 74%, 15%)"></circle><circle r="37.5" cx="1575" cy="262.5" fill="hsl(223, 74%, 15%)"></circle><circle r="37.5" cx="1575" cy="337.5" fill="hsl(224, 74%, 15%)"></circle><circle r="37.5" cx="1575" cy="412.5" fill="hsl(227, 74%, 15%)"></circle><circle r="37.5" cx="1575" cy="487.5" fill="hsl(228, 74%, 15%)"></circle><circle r="37.5" cx="1575" cy="562.5" fill="hsl(235, 74%, 15%)"></circle><circle r="37.5" cx="1575" cy="637.5" fill="hsl(243, 74%, 15%)"></circle><circle r="37.5" cx="1575" cy="712.5" fill="hsl(243, 74%, 15%)"></circle><circle r="37.5" cx="1575" cy="787.5" fill="hsl(242, 74%, 15%)"></circle><circle r="37.5" cx="1575" cy="862.5" fill="hsl(239, 74%, 15%)"></circle><circle r="37.5" cx="1650" cy="37.5" fill="hsl(237, 74%, 15%)"></circle><circle r="37.5" cx="1650" cy="112.5" fill="hsl(233, 74%, 15%)"></circle><circle r="37.5" cx="1650" cy="187.5" fill="hsl(229, 74%, 15%)"></circle><circle r="37.5" cx="1650" cy="262.5" fill="hsl(223, 74%, 15%)"></circle><circle r="37.5" cx="1650" cy="337.5" fill="hsl(224, 74%, 15%)"></circle><circle r="37.5" cx="1650" cy="412.5" fill="hsl(227, 74%, 15%)"></circle><circle r="37.5" cx="1650" cy="487.5" fill="hsl(228, 74%, 15%)"></circle><circle r="37.5" cx="1650" cy="562.5" fill="hsl(235, 74%, 15%)"></circle><circle r="37.5" cx="1650" cy="637.5" fill="hsl(243, 74%, 15%)"></circle><circle r="37.5" cx="1650" cy="712.5" fill="hsl(243, 74%, 15%)"></circle><circle r="37.5" cx="1650" cy="787.5" fill="hsl(242, 74%, 15%)"></circle><circle r="37.5" cx="1650" cy="862.5" fill="hsl(239, 74%, 15%)"></circle><circle r="37.5" cx="1725" cy="37.5" fill="hsl(237, 74%, 15%)"></circle><circle r="37.5" cx="1725" cy="112.5" fill="hsl(233, 74%, 15%)"></circle><circle r="37.5" cx="1725" cy="187.5" fill="hsl(229, 74%, 15%)"></circle><circle r="37.5" cx="1725" cy="262.5" fill="hsl(223, 74%, 15%)"></circle><circle r="37.5" cx="1725" cy="337.5" fill="hsl(224, 74%, 15%)"></circle><circle r="37.5" cx="1725" cy="412.5" fill="hsl(227, 74%, 15%)"></circle><circle r="37.5" cx="1725" cy="487.5" fill="hsl(228, 74%, 15%)"></circle><circle r="37.5" cx="1725" cy="562.5" fill="hsl(235, 74%, 15%)"></circle><circle r="37.5" cx="1725" cy="637.5" fill="hsl(243, 74%, 15%)"></circle><circle r="37.5" cx="1725" cy="712.5" fill="hsl(243, 74%, 15%)"></circle><circle r="37.5" cx="1725" cy="787.5" fill="hsl(242, 74%, 15%)"></circle><circle r="37.5" cx="1725" cy="862.5" fill="hsl(239, 74%, 15%)"></circle><circle r="37.5" cx="1800" cy="37.5" fill="hsl(237, 74%, 15%)"></circle><circle r="37.5" cx="1800" cy="112.5" fill="hsl(233, 74%, 15%)"></circle><circle r="37.5" cx="1800" cy="187.5" fill="hsl(229, 74%, 15%)"></circle><circle r="37.5" cx="1800" cy="262.5" fill="hsl(223, 74%, 15%)"></circle><circle r="37.5" cx="1800" cy="337.5" fill="hsl(224, 74%, 15%)"></circle><circle r="37.5" cx="1800" cy="412.5" fill="hsl(227, 74%, 15%)"></circle><circle r="37.5" cx="1800" cy="487.5" fill="hsl(228, 74%, 15%)"></circle><circle r="37.5" cx="1800" cy="562.5" fill="hsl(235, 74%, 15%)"></circle><circle r="37.5" cx="1800" cy="637.5" fill="hsl(243, 74%, 15%)"></circle><circle r="37.5" cx="1800" cy="712.5" fill="hsl(243, 74%, 15%)"></circle><circle r="37.5" cx="1800" cy="787.5" fill="hsl(242, 74%, 15%)"></circle><circle r="37.5" cx="1800" cy="862.5" fill="hsl(239, 74%, 15%)"></circle></g></svg>
